<svg  width="158" height="77" viewBox="0 0 158 77" fill="none" xmlns="http://www.w3.org/2000/svg">
<title id="title" lang="en">ARC logo</title>
<path fill-rule="evenodd" clip-rule="evenodd" d="M152.847 76.4411C151.611 36.5812 118.909 4.64804 78.7487 4.64804C38.5893 4.64804 5.88744 36.5812 4.65033 76.4411H0C1.2389 34.0137 36.022 -1.87983e-06 78.7487 0C121.476 3.31208e-06 156.259 34.0137 157.497 76.4411H152.847Z" fill="#E61E28"/>
<path fill-rule="evenodd" clip-rule="evenodd" d="M27.6782 55.7204C39.4961 55.7204 49.2372 64.6093 50.5817 76.0659H55.2562C53.892 62.037 42.0652 51.0723 27.6782 51.0723C13.2913 51.0723 1.46448 62.037 0.0993652 76.0659H4.77476C6.11839 64.6093 15.8604 55.7204 27.6782 55.7204Z" fill="#E61E28"/>
<path fill-rule="evenodd" clip-rule="evenodd" d="M100.98 76.4416C98.3264 52.2597 77.8318 33.4455 52.9438 33.4455C28.0549 33.4455 7.56116 52.2597 4.90792 76.4416H0.234314C2.90725 49.6876 25.4858 28.7974 52.9438 28.7974C80.4018 28.7974 102.98 49.6876 105.653 76.4416H100.98Z" fill="#E61E28"/>
</svg>
