<svg width="299" height="63" viewBox="0 0 299 63" fill="none" xmlns="http://www.w3.org/2000/svg">
<path d="M138.482 61.1537L161.485 1.25391H170.025L194.541 61.1537H185.511L178.524 43.0122H153.477L146.899 61.1537H138.482ZM155.765 36.5564H176.072L169.821 19.9675C167.914 14.9282 166.497 10.7878 165.571 7.54624C164.809 11.387 163.733 15.2006 162.343 18.9869L155.765 36.5564Z" fill="#E61E28"/>
<path d="M196.032 61.1537V1.25391H222.591C227.93 1.25391 231.989 1.7987 234.767 2.88828C237.545 3.95062 239.765 5.84377 241.427 8.56773C243.089 11.2917 243.919 14.3017 243.919 17.5976C243.919 21.847 242.544 25.429 239.793 28.3437C237.041 31.2583 232.792 33.1106 227.045 33.9005C229.142 34.9084 230.736 35.9026 231.825 36.8833C234.14 39.0079 236.333 41.6638 238.403 44.8508L248.823 61.1537H238.853L230.926 48.6916C228.611 45.096 226.704 42.3448 225.206 40.438C223.708 38.5312 222.359 37.1965 221.161 36.4338C219.989 35.6711 218.791 35.1399 217.565 34.8403C216.666 34.6496 215.195 34.5543 213.152 34.5543H203.959V61.1537H196.032ZM203.959 27.6899H220.997C224.62 27.6899 227.453 27.3222 229.496 26.5867C231.539 25.824 233.092 24.6255 234.154 22.9911C235.216 21.3295 235.748 19.5317 235.748 17.5976C235.748 14.7647 234.712 12.4357 232.642 10.6107C230.599 8.78564 227.358 7.87312 222.918 7.87312H203.959V27.6899Z" fill="#E61E28"/>
<path d="M291.073 40.152L299 42.1541C297.338 48.6644 294.342 53.6356 290.011 57.0678C285.707 60.4727 280.436 62.1752 274.198 62.1752C267.743 62.1752 262.485 60.8677 258.427 58.2527C254.395 55.6105 251.317 51.7969 249.192 46.8121C247.095 41.8272 246.046 36.4747 246.046 30.7544C246.046 24.5165 247.231 19.0822 249.601 14.4515C251.998 9.79351 255.389 6.26599 259.775 3.8689C264.188 1.44458 269.036 0.232422 274.321 0.232422C280.314 0.232422 285.353 1.75784 289.439 4.80867C293.525 7.8595 296.371 12.1497 297.979 17.6794L290.174 19.518C288.785 15.1597 286.769 11.9863 284.127 9.9978C281.485 8.00932 278.162 7.01507 274.158 7.01507C269.554 7.01507 265.7 8.11828 262.594 10.3247C259.516 12.5311 257.351 15.5002 256.098 19.232C254.845 22.9366 254.218 26.7638 254.218 30.7135C254.218 35.8073 254.954 40.261 256.425 44.0745C257.923 47.8608 260.238 50.6937 263.371 52.5732C266.503 54.4528 269.895 55.3925 273.545 55.3925C277.985 55.3925 281.744 54.1123 284.822 51.5518C287.9 48.9912 289.984 45.1913 291.073 40.152Z" fill="#E61E28"/>
<path fill-rule="evenodd" clip-rule="evenodd" d="M39.7458 61.1159C38.7377 52.0642 31.0609 45.0259 21.7402 45.0258C12.4195 45.0258 4.74274 52.0642 3.73469 61.1159H0.0641022C1.08681 50.0437 10.4011 41.3743 21.7402 41.3743C33.0794 41.3743 42.3937 50.0437 43.4164 61.1159H39.7458Z" fill="#E61E28"/>
<path fill-rule="evenodd" clip-rule="evenodd" d="M42.7613 57.4643C43.0795 58.6448 43.3008 59.865 43.4164 61.1159H39.7461C38.738 52.0642 31.0609 45.0259 21.7402 45.0258C12.4195 45.0258 4.74274 52.0641 3.73469 61.1159H0.0641022C0.179643 59.865 0.40101 58.6448 0.719169 57.4643C1.86085 53.2282 4.24886 49.5033 7.46569 46.7072C11.2874 43.3853 16.279 41.3743 21.7402 41.3743C27.1988 41.3743 32.1881 43.3833 36.0091 46.7023C39.2288 49.4989 41.6189 53.2257 42.7613 57.4643Z" fill="#E61E28"/>
<path fill-rule="evenodd" clip-rule="evenodd" d="M79.305 61.116C77.1351 42.209 61.0764 27.5259 41.5882 27.5258C22.1001 27.5258 6.04133 42.209 3.87145 61.116H0.197723C2.38464 40.188 20.0813 23.8743 41.5882 23.8743C63.0951 23.8743 80.7918 40.188 82.9787 61.116H79.305Z" fill="#E61E28"/>
<path fill-rule="evenodd" clip-rule="evenodd" d="M79.9508 60.3857H82.16C79.6474 40.2145 62.4403 24.6046 41.5882 24.6046C20.7362 24.6046 3.52904 40.2145 1.01641 60.3857H3.22568C5.72533 41.4273 21.9475 26.7955 41.5882 26.7955C61.2289 26.7955 77.4511 41.4273 79.9508 60.3857ZM0.280548 60.3857C0.250843 60.6285 0.223228 60.8719 0.197723 61.116H3.87145C6.04133 42.209 22.1001 27.5258 41.5882 27.5258C61.0764 27.5259 77.1351 42.209 79.305 61.116H82.9787C82.9532 60.8719 82.9256 60.6285 82.8959 60.3857C80.3785 39.8097 62.8443 23.8743 41.5882 23.8743C20.3321 23.8743 2.79794 39.8097 0.280548 60.3857Z" fill="#E61E28"/>
<path fill-rule="evenodd" clip-rule="evenodd" d="M120.068 61.1163C118.999 29.8895 93.3477 4.9028 61.8606 4.9028C30.3734 4.9028 4.72226 29.8895 3.65363 61.1163H0C1.07025 27.8724 28.3566 1.25122 61.8606 1.25122C95.3646 1.25122 122.651 27.8724 123.721 61.1163H120.068Z" fill="#E61E28"/>
<path fill-rule="evenodd" clip-rule="evenodd" d="M123.258 55.2738C119.391 24.8074 93.377 1.25122 61.8606 1.25122C30.3442 1.25122 4.32968 24.8074 0.463106 55.2738C0.224402 57.1546 0.0701096 59.0618 0.00414513 60.9914C0.00272231 61.033 0.00134059 61.0747 0 61.1163H3.65363C4.72226 29.8895 30.3734 4.9028 61.8606 4.9028C93.3477 4.9028 118.999 29.8895 120.068 61.1163H123.721C123.72 61.0747 123.718 61.033 123.717 60.9914C123.651 59.0618 123.497 57.1546 123.258 55.2738Z" fill="#E61E28"/>
</svg>
