<svg width="449" height="93" viewBox="0 0 449 93" fill="none" xmlns="http://www.w3.org/2000/svg">
<g clip-path="url(#clip0_1775:51)">
<path d="M58.0642 65.9702H17.234L7.96838 91.1726H0L34.0354 1.23486H41.2626L75.2981 91.1726H67.3915L58.0642 65.9702ZM19.5812 59.4843H55.6552L37.6182 10.5004L19.5812 59.4843Z" fill="#E61E28"/>
<path d="M123.293 53.7397H97.1633V91.1726H89.5038V1.23486H118.722C128.316 1.23486 135.811 3.56155 141.205 8.21492C146.6 12.8683 149.297 19.3748 149.297 27.7344C149.297 33.4996 147.609 38.5854 144.233 42.9916C140.856 47.3979 136.325 50.4452 130.643 52.1337L153.127 90.3695V91.1726H145.035L123.293 53.7397ZM97.1633 47.2538H120.45C126.834 47.2538 131.961 45.4418 135.832 41.818C139.702 38.1941 141.638 33.4996 141.638 27.7344C141.638 21.3926 139.62 16.4716 135.585 12.9713C131.549 9.47092 125.887 7.72076 118.598 7.72076H97.1633V47.2538Z" fill="#E61E28"/>
<path d="M232.565 63.1294C231.536 72.6008 228.139 79.8485 222.374 84.8725C216.65 89.8965 209.011 92.4085 199.456 92.4085C192.786 92.4085 186.876 90.7407 181.729 87.4051C176.622 84.0695 172.669 79.3543 169.868 73.2596C167.069 67.1239 165.648 60.1232 165.606 52.2578V40.5832C165.606 32.5941 167.007 25.5112 169.807 19.3342C172.607 13.157 176.622 8.40077 181.853 5.06518C187.124 1.68839 193.177 0 200.012 0C209.649 0 217.247 2.61495 222.806 7.84484C228.406 13.0336 231.66 20.2195 232.565 29.4027H224.906C223.012 14.1248 214.714 6.48589 200.012 6.48589C191.859 6.48589 185.352 9.53323 180.493 15.628C175.675 21.7226 173.266 30.144 173.266 40.892V51.8872C173.266 62.2646 175.613 70.5418 180.308 76.7188C185.043 82.8958 191.426 85.9844 199.456 85.9844C207.404 85.9844 213.397 84.0901 217.432 80.3015C221.467 76.4718 223.959 70.7477 224.906 63.1294H232.565Z" fill="#E61E28"/>
<path fill-rule="evenodd" clip-rule="evenodd" d="M442.741 91.3391C441.265 43.7397 402.213 5.6062 354.255 5.6062C306.298 5.6062 267.247 43.7397 265.77 91.3391H260.216C261.696 40.6737 303.233 0.0556618 354.255 0.0556641C405.279 0.055668 446.816 40.6737 448.294 91.3391H442.741Z" fill="#E61E28"/>
<mask id="mask0_1775:51" style="mask-type:alpha" maskUnits="userSpaceOnUse" x="260" y="61" width="67" height="30">
<path fill-rule="evenodd" clip-rule="evenodd" d="M293.269 66.595C307.381 66.595 319.014 77.2099 320.619 90.891H326.201C324.572 74.1382 310.449 61.0444 293.269 61.0444C276.088 61.0444 261.965 74.1382 260.335 90.891H265.918C267.523 77.2099 279.156 66.595 293.269 66.595Z" fill="white"/>
</mask>
<g mask="url(#mask0_1775:51)">
<path fill-rule="evenodd" clip-rule="evenodd" d="M293.269 66.595C307.381 66.595 319.014 77.2099 320.619 90.891H326.201C324.572 74.1382 310.449 61.0444 293.269 61.0444C276.088 61.0444 261.965 74.1382 260.335 90.891H265.918C267.523 77.2099 279.156 66.595 293.269 66.595Z" fill="#E61E28"/>
</g>
<mask id="mask1_1775:51" style="mask-type:alpha" maskUnits="userSpaceOnUse" x="260" y="34" width="127" height="58">
<path fill-rule="evenodd" clip-rule="evenodd" d="M380.803 91.3395C377.634 62.4623 353.16 39.9949 323.44 39.9949C293.718 39.9949 269.246 62.4623 266.077 91.3395H260.496C263.688 59.3908 290.651 34.4443 323.44 34.4443C356.229 34.4443 383.192 59.3908 386.384 91.3395H380.803Z" fill="white"/>
</mask>
<g mask="url(#mask1_1775:51)">
<path fill-rule="evenodd" clip-rule="evenodd" d="M380.803 91.3395C377.634 62.4623 353.16 39.9949 323.44 39.9949C293.718 39.9949 269.246 62.4623 266.077 91.3395H260.496C263.688 59.3908 290.651 34.4443 323.44 34.4443C356.229 34.4443 383.192 59.3908 386.384 91.3395H380.803Z" fill="#E61E28"/>
</g>
</g>
<defs>
<clipPath id="clip0_1775:51">
<rect width="448.966" height="93" fill="white"/>
</clipPath>
</defs>
</svg>
