<svg xmlns="http://www.w3.org/2000/svg" style="display: none;">
  <symbol id="arc-radio-unchecked" viewBox="0 0 24 24">
    <g class="nc-icon-wrapper">
      <path
        d="M12 2C6.48 2 2 6.48 2 12s4.48 10 10 10 10-4.48 10-10S17.52 2 12 2zm0 18c-4.42 0-8-3.58-8-8s3.58-8 8-8 8 3.58 8 8-3.58 8-8 8z"
        fill="currentColor" stroke="none"/>
    </g>
  </symbol>
  <symbol id="arc-radio-checked" viewBox="0 0 24 24">
    <g class="nc-icon-wrapper">
      <path
        d="M12 2C6.48 2 2 6.48 2 12s4.48 10 10 10 10-4.48 10-10S17.52 2 12 2zm0 18c-4.42 0-8-3.58-8-8s3.58-8 8-8 8 3.58 8 8-3.58 8-8 8z"
        fill="currentColor" stroke="none"/>
      <path d="M12 17a5 5 0 1 0 0-10 5 5 0 0 0 0 10z" fill="currentColor" stroke="none"/>
    </g>
  </symbol>
  <symbol id="arc-book-open" viewBox="0 0 31 32">
    <g class="nc-icon-wrapper">
      <path
        d="M28.82.079L16.015 3.586c-.081.021-.182.036-.303.047a4.484 4.484 0 0 1-.757 0 1.915 1.915 0 0 1-.303-.047L2.18.08C1.615-.085 1.11.007.666.356.222.704 0 1.166 0 1.74V25.68c0 .492.161.949.484 1.369.323.42.717.703 1.181.846l12.473 3.508c.343.102.746.154 1.21.154.182 0 .38-.01.591-.031.212-.02.409-.062.59-.123l12.806-3.539c.464-.123.858-.395 1.18-.815.323-.42.485-.877.485-1.37V1.74c0-.574-.222-1.036-.666-1.384-.444-.349-.949-.441-1.514-.277zM14.531 29.463L2.15 25.986a.472.472 0 0 1-.136-.123.292.292 0 0 1-.075-.184V2.048l12.2 3.446c.06 0 .12.01.181.03.06.021.131.032.212.032v23.907zm14.531-3.784c0 .04-.03.097-.09.169a.567.567 0 0 1-.152.139L16.47 29.37V5.494h.06l12.534-3.446v23.63zm-9.627-14.4c.102 0 .192-.01.273-.031l6.781-1.938a.99.99 0 0 0 .56-.477.967.967 0 0 0 .106-.723 1.163 1.163 0 0 0-.272-.462.895.895 0 0 0-.424-.246 1.09 1.09 0 0 0-.515 0l-6.78 1.938a.99.99 0 0 0-.561.477 1.031 1.031 0 0 0-.106.754c.162.451.474.687.939.708zm0 5.907c.102 0 .192-.01.273-.03l6.781-1.939a.99.99 0 0 0 .56-.477.948.948 0 0 0 .091-.738.938.938 0 0 0-.454-.585.987.987 0 0 0-.742-.107l-6.78 1.938a.989.989 0 0 0-.561.477 1.031 1.031 0 0 0-.106.754c.162.451.474.687.939.707zm0 5.908h.137l.136-.03 6.781-1.94a.99.99 0 0 0 .56-.476.948.948 0 0 0 .091-.738.938.938 0 0 0-.454-.585.987.987 0 0 0-.742-.108l-6.78 1.939a.989.989 0 0 0-.561.477 1.031 1.031 0 0 0-.106.754c.162.45.474.687.939.707zM11.959 9.34L5.177 7.402a1.264 1.264 0 0 0-.742.108.78.78 0 0 0-.288.23.967.967 0 0 0-.076 1.092.99.99 0 0 0 .56.478l6.782 1.938c.04.02.086.03.136.03h.136c.142 0 .278-.025.41-.076a.79.79 0 0 0 .332-.246c.091-.113.157-.241.197-.385.121-.472-.02-.84-.424-1.108a1.338 1.338 0 0 1-.242-.123zm0 5.908L5.177 13.31a1.091 1.091 0 0 0-.515 0 .895.895 0 0 0-.424.246 1.163 1.163 0 0 0-.272.461c-.02.103-.03.205-.03.308 0 .103.02.2.06.292.04.092.09.18.151.262.061.082.132.154.212.215a.66.66 0 0 0 .273.123l6.781 1.939c.08.02.172.03.272.03a.981.981 0 0 0 .939-.708c.121-.471-.02-.84-.424-1.107a1.344 1.344 0 0 1-.242-.123zm0 5.908l-6.781-1.939a.987.987 0 0 0-.742.108.998.998 0 0 0-.47.6 1.59 1.59 0 0 0-.03.308c0 .102.02.2.061.292.04.092.09.18.151.262.061.082.132.153.212.215a.66.66 0 0 0 .273.123l6.781 1.938c.101.02.192.031.272.031a.981.981 0 0 0 .939-.708c.141-.492-.01-.861-.454-1.107a1.996 1.996 0 0 1-.212-.123z"
        fill="currentColor" stroke="none"/>
    </g>
  </symbol>
  <symbol id="arc-accessibility" viewBox="0 0 32 32">
    <g class="nc-icon-wrapper">
      <path
        d="M16 0c-2.896 0-5.573.714-8.031 2.14A15.8 15.8 0 0 0 2.14 7.97C.714 10.427 0 13.104 0 16c0 2.896.714 5.573 2.14 8.031A15.8 15.8 0 0 0 7.97 29.86C10.427 31.286 13.104 32 16 32c2.896 0 5.573-.713 8.031-2.14a15.8 15.8 0 0 0 5.828-5.829C31.286 21.573 32 18.896 32 16c0-2.896-.713-5.573-2.14-8.031A15.8 15.8 0 0 0 24.03 2.14C21.573.714 18.896 0 16 0zm0 30.031c-1.52 0-2.995-.234-4.422-.703a12.977 12.977 0 0 1-3.86-2.015 15.682 15.682 0 0 1-3.015-3.032 13.186 13.186 0 0 1-2-3.86A14.08 14.08 0 0 1 2 16c0-1.896.37-3.708 1.11-5.438.739-1.729 1.734-3.218 2.984-4.468s2.74-2.245 4.468-2.985C12.293 2.37 14.104 2 16 2s3.708.37 5.438 1.11c1.729.739 3.218 1.734 4.468 2.984s2.245 2.74 2.985 4.468C29.63 12.293 30 14.104 30 16s-.37 3.708-1.11 5.438c-.739 1.729-1.734 3.224-2.984 4.484-1.25 1.26-2.74 2.26-4.468 3-1.73.74-3.542 1.11-5.438 1.11z"
        fill="currentColor" stroke="none"/>
      <ellipse cx="25" cy="12" rx="1" ry="1" fill="currentColor" stroke="none"/>
      <ellipse cx="7" cy="12" rx="1" ry="1" fill="currentColor" stroke="none"/>
      <circle cx="14" cy="26" r="1" fill="currentColor" stroke="none"/>
      <circle cx="18" cy="26" r="1" fill="currentColor" stroke="none"/>
      <path fill-rule="evenodd" clip-rule="evenodd"
            d="M19 13h6v-2H7v2h6v13h2v-6a1 1 0 0 1 2 0v6h2V13zm-1.586-6.414A2 2 0 0 0 16 6c-1.11 0-2 .89-2 2a2 2 0 1 0 3.414-1.414z"
            fill="currentColor" stroke="none"/>
    </g>
  </symbol>
  <symbol id="arc-bulb" viewBox="0 0 23 31">
    <g class="nc-icon-wrapper">
      <path
        d="M11.5 0C9.48 0 7.62.484 5.922 1.453a10.644 10.644 0 0 0-4 3.95C.953 7.07.469 8.89.469 10.869c0 .727.057 1.413.172 2.059.114.646.28 1.23.5 1.756.218.524.448.994.687 1.407.24.414.537.818.89 1.211.355.394.657.712.907.954s.563.525.938.848c.062.06.156.14.28.242.417.363.72.636.907.817.188.182.36.394.516.636.156.242.234.474.234.696v1.635c0 .02.01.06.031.121H6.5v2.815c0 .97.208 1.827.625 2.574a4.372 4.372 0 0 0 1.766 1.74c.76.414 1.64.621 2.64.621 1.48 0 2.677-.454 3.594-1.362.917-.909 1.375-2.1 1.375-3.573V23.25h-.031v-.03c.02-.04.031-.07.031-.091v-1.635c0-.363.11-.721.328-1.075.219-.353.438-.63.656-.832.22-.202.62-.555 1.203-1.06.375-.323.683-.595.922-.817.24-.222.526-.52.86-.893.333-.373.61-.747.828-1.12.219-.374.432-.802.64-1.287a6.74 6.74 0 0 0 .454-1.62c.093-.595.14-1.236.14-1.922 0-.989-.13-1.952-.39-2.891a10.54 10.54 0 0 0-1.094-2.588 11.187 11.187 0 0 0-1.719-2.195 10.76 10.76 0 0 0-2.219-1.71 11.093 11.093 0 0 0-2.64-1.09A11.191 11.191 0 0 0 11.5 0zm-.031 29.063c-.938 0-1.667-.268-2.188-.803-.52-.535-.781-1.266-.781-2.195v-1.301c.854.282 1.854.424 3 .424.604 0 1.156-.04 1.656-.122.5-.08.948-.191 1.344-.333v1.332c0 .949-.266 1.686-.797 2.21-.531.525-1.276.788-2.234.788zm5.906-11.989a.885.885 0 0 0-.188.152c-.437.363-.77.655-1 .878-.229.222-.5.52-.812.893a3.607 3.607 0 0 0-.672 1.165 4.168 4.168 0 0 0-.203 1.332v1.211c-.708.384-1.719.575-3.031.575-.334 0-.64-.015-.922-.045-.281-.03-.526-.06-.735-.091a5.01 5.01 0 0 1-1-.257 2.213 2.213 0 0 1-.312-.152v-1.24c0-.99-.573-2.009-1.719-3.059a24.296 24.296 0 0 1-.656-.575l-.219-.181c-.354-.303-.64-.565-.86-.787-.218-.222-.478-.5-.78-.833a5.56 5.56 0 0 1-.735-.999c-.187-.333-.37-.711-.547-1.135a6.222 6.222 0 0 1-.39-1.408 10.328 10.328 0 0 1-.125-1.65c0-2.482.875-4.591 2.625-6.327 1.75-1.736 3.885-2.604 6.406-2.604 1.667 0 3.193.4 4.578 1.196a8.726 8.726 0 0 1 3.266 3.255 8.811 8.811 0 0 1 1.187 4.48c0 .545-.036 1.055-.11 1.529a5.695 5.695 0 0 1-.343 1.287 7.231 7.231 0 0 1-.5 1.014c-.177.292-.4.59-.672.893-.27.303-.51.555-.718.757-.209.201-.48.444-.813.726z"
        fill="currentColor" stroke="none"/>
    </g>
  </symbol>
  <symbol id="arc-x" viewBox="0 0 32 33">
    <g class="nc-icon-wrapper">
      <path
        d="M15.89 14.857c-.295 0-.548.105-.759.316L.316 29.98c-.21.21-.316.462-.316.757s.105.547.316.758c.21.21.463.316.758.316s.548-.106.758-.316l14.057-14.05 14.279 14.27c.21.19.463.285.758.285s.548-.095.758-.284a1.096 1.096 0 0 0 .237-1.184 1.032 1.032 0 0 0-.237-.363L16.648 15.173a1.035 1.035 0 0 0-.759-.316z"
        fill="currentColor" stroke="none"/>
      <path
        d="M16.11 17.143c.295 0 .548-.105.759-.316L31.684 2.021c.21-.21.316-.464.316-.758 0-.295-.105-.547-.316-.758a1.034 1.034 0 0 0-.758-.316c-.295 0-.548.106-.758.316L16.11 14.555 1.832.284A1.095 1.095 0 0 0 1.074 0C.779 0 .526.095.316.284a1.097 1.097 0 0 0-.237 1.184c.053.137.132.258.237.363l15.036 14.996c.211.21.464.316.759.316z"
        fill="currentColor" stroke="none"/>
    </g>
  </symbol>
  <symbol id="arc-brightness_low" viewBox="0 0 24 24">
    <g class="nc-icon-wrapper">
      <path
        d="M20 8.69V4h-4.69L12 .69 8.69 4H4v4.69L.69 12 4 15.31V20h4.69L12 23.31 15.31 20H20v-4.69L23.31 12 20 8.69zM12 18c-.89 0-1.74-.2-2.5-.55C11.56 16.5 13 14.42 13 12c0-2.42-1.44-4.5-3.5-5.45C10.26 6.2 11.11 6 12 6c3.31 0 6 2.69 6 6s-2.69 6-6 6z"
        fill="currentColor" class="nc-icon-wrapper" stroke="none"/>
    </g>
  </symbol>
  <symbol id="arc-user-remove" viewBox="0 0 32 32">
    <g class="nc-icon-wrapper">
      <path transform="matrix(1 0 0 -1 0 30)"
            d="M24.973 18.005v4.997c0 3.31-4.582 6.995-8.997 6.995-4.416 0-9.004-3.685-9.004-6.995v-4.997c0-2.184.996-6.601 3.793-8.846L1.983 5.013s-1.999-.89-1.999-1.998V.014c0-1.105.895-2 1.999-2H20.98v2H1.984v2.029c0 .795.597 1.045.835 1.155l8.782 4.144a2 2 0 0 1 .416 3.376c-2.078 1.668-3.046 5.334-3.046 7.287v4.998c0 2.09 3.638 4.995 7.004 4.995 3.397 0 6.997-2.86 6.997-4.995v-4.998c0-1.923-.8-5.604-2.944-7.292a1.994 1.994 0 0 1-.749-1.806 1.996 1.996 0 0 1 1.151-1.582l.567-.261.877 1.619-.61.46c2.771 2.178 3.709 6.461 3.709 8.861zm3.922-15.468l2.828 2.829a1 1 0 0 1-1.414 1.414L27.48 3.951 24.652 6.78a1 1 0 0 1-1.414-1.414l2.828-2.829L23.238-.29a1 1 0 0 1 1.414-1.414l2.828 2.828 2.829-2.828a1.001 1.001 0 0 1 1.414 1.414z"
            fill="currentColor" stroke="none" class="nc-icon-wrapper"/>
    </g>
  </symbol>
  <symbol id="arc-user" viewBox="0 0 32 32">
    <g class="nc-icon-wrapper">
      <path transform="matrix(1 0 0 -1 0 30)"
            d="M15.992 28c3.395 0 6.997-2.86 6.997-4.995v-4.998c0-1.923-.8-5.603-2.945-7.293a2 2 0 0 1 .402-3.388l8.703-4.127c.068-.031.834-.16.834-1.23l.001-1.952L2 .015v2.03c0 .795.596 1.045.835 1.155l8.782 4.144a1.998 1.998 0 0 1 .416 3.376c-2.078 1.668-3.046 5.335-3.046 7.287v4.998C8.988 25.094 12.625 28 15.991 28zm0 2c-4.417 0-9.004-3.686-9.004-6.995v-4.998c0-2.183.996-6.601 3.793-8.846L1.999 5.016S0 4.125 0 3.016v-3c0-1.105.895-2 1.999-2h27.986c1.104 0 1.998.895 1.998 2v3c0 1.176-1.998 2-1.998 2l-8.703 4.127c2.77 2.18 3.708 6.464 3.708 8.864v4.998c0 3.31-4.583 6.995-8.998 6.995z"
            fill="currentColor" stroke="none" class="nc-icon-wrapper"/>
    </g>
  </symbol>
  <symbol id="arc-shield" viewBox="0 0 32 32">
    <g class="nc-icon-wrapper">
      <path transform="matrix(1 0 0 -1 0 30)"
            d="M28.373 25.485a2 2 0 0 1-1.501.533c-.029-.002-.35-.021-.853-.021-.833 0-2.459.056-3.999.435-1.99.488-4.285 2.755-4.953 3.202a1.999 1.999 0 0 1-2.222.001c-.081-.055-2.485-2.626-4.836-3.203-1.539-.379-3.197-.436-4.029-.436-.503 0-.824.02-.855.022a2.006 2.006 0 0 1-2.135-1.995v-5.001C2.99.534 15.087-1.847 15.6-1.94a2.05 2.05 0 0 1 .707 0c.514.093 12.7 2.474 12.7 20.962v5.001a1.994 1.994 0 0 1-.635 1.462zm-1.363-6.463C27.01 1.993 15.956.029 15.956.029S4.991 1.994 4.991 19.022v5.001s.378-.027.99-.027c1.049 0 2.813.077 4.505.493 2.77.68 5.47 3.482 5.47 3.482s2.82-2.802 5.586-3.482c1.694-.416 3.428-.493 4.477-.493.612 0 .99.027.99.027v-5.001zm-6.773.158a1 1 0 0 1-1.414 0l-2.828-2.829-2.829 2.829a1 1 0 0 1-1.414-1.414l2.828-2.829-2.828-2.828a1 1 0 1 1 1.414-1.414l2.829 2.828 2.828-2.828a1 1 0 1 1 1.414 1.414l-2.828 2.828 2.828 2.829a1 1 0 0 1 0 1.414z"
            fill="currentColor" stroke="none" class="nc-icon-wrapper"/>
    </g>
  </symbol>
  <symbol id="arc-screen-tablet" viewBox="0 0 32 32">
    <g class="nc-icon-wrapper">
      <path transform="matrix(1 0 0 -1 0 30)"
            d="M26.005 30H5.994a3 3 0 0 1-3-3V1a3 3 0 0 1 3-3h20.01a3 3 0 0 1 3 3v26a3 3 0 0 1-3 3zm1-29a1 1 0 0 0-1-1H5.994a1 1 0 0 0-1 1v26a1 1 0 0 0 1 1h20.01a1 1 0 0 0 1-1V1zM16.002 4.995A1.995 1.995 0 1 1 16 1.005a1.995 1.995 0 0 1 0 3.99zm2 22.005h-4a1 1 0 0 1 0-2h4a1 1 0 0 1 0 2z"
            fill="currentColor" stroke="none" class="nc-icon-wrapper"/>
    </g>
  </symbol>
  <symbol id="arc-screen-smartphone" viewBox="0 0 32 32">
    <g class="nc-icon-wrapper">
      <path transform="matrix(1 0 0 -1 0 30)"
            d="M22.005 30H9.995a3 3 0 0 1-3-3V1a3 3 0 0 1 3-3h12.01a3 3 0 0 1 3 3v26a3 3 0 0 1-3 3zm1-29a1 1 0 0 0-1-1H9.995a1 1 0 0 0-1 1v26a1 1 0 0 0 1 1h12.01a1 1 0 0 0 1-1V1zm-7.003 3.995A1.995 1.995 0 1 1 16 1.005a1.995 1.995 0 0 1 0 3.99zm2 22.005h-4a1 1 0 0 1 0-2h4a1 1 0 0 1 0 2z"
            fill="currentColor" stroke="none" class="nc-icon-wrapper"/>
    </g>
  </symbol>
  <symbol id="arc-screen-desktop" viewBox="0 0 32 32">
    <g class="nc-icon-wrapper">
      <path transform="matrix(1 0 0 -1 0 30)"
            d="M30 27.006H2c-1.1 0-2-.9-2-2V8c0-1.1.9-2 2-2h13V2.995h-5a1 1 0 0 1 0-2h12a1 1 0 0 1 0 2h-5v3.007h13c1.1 0 2 .9 2 1.999v17.006c0 1.1-.9 2-2 2zM30 8H2v17.006h28V8z"
            fill="currentColor" stroke="none" class="nc-icon-wrapper"/>
    </g>
  </symbol>
  <symbol id="arc-user-check" viewBox="0 0 32 32">
    <g class="nc-icon-wrapper">
      <path transform="matrix(1 0 0 -1 0 30)"
            d="M1.984.008v2.029c0 .795.598 1.044.836 1.154l8.782 4.145a1.999 1.999 0 0 1 .416 3.376c-2.078 1.668-3.046 5.334-3.046 7.287v4.997c0 2.09 3.638 4.996 7.004 4.996 3.396 0 6.998-2.86 6.998-4.996V18c0-1.924-.8-5.604-2.945-7.293a2 2 0 0 1 .402-3.389l5.07-2.414 1.192 1.69-5.427 2.542c2.77 2.18 3.708 6.464 3.708 8.864v4.998c0 3.31-4.582 6.995-8.998 6.995s-9.004-3.685-9.004-6.995v-4.998c0-2.183.997-6.601 3.794-8.846L1.983 5.007S-.015 4.117-.015 3.01V.007c0-1.104.895-1.998 1.998-1.998h19.991L20.349.008zM31.632 7.39a1 1 0 0 1-1.404-.17L25.952.696l-2.658 2.659a1 1 0 0 1-1.415-1.414l3.536-3.536a1 1 0 0 1 1.629.322l4.76 7.26a1 1 0 0 1-.172 1.402z"
            fill="currentColor" stroke="none" class="nc-icon-wrapper"/>
    </g>
  </symbol>
  <symbol id="arc-graduation" viewBox="0 0 32 32">
    <g class="nc-icon-wrapper">
      <path transform="matrix(1 0 0 -1 0 30)"
            d="M30.964 8.24v8.068l.503.265a.999.999 0 0 1 .018 1.763l-15.045 8.05a1.003 1.003 0 0 1-.968-.003L.51 18.323a1 1 0 0 1 .012-1.755l6.574-3.499a.99.99 0 0 1-.133-.49V4.117a1 1 0 0 1 .335-.747c.217-.193 2.295-1.878 8.649-1.878 6.33 0 8.465 1.593 8.687 1.774.233.19.367.473.367.774v8.68c0 .14-.03.274-.081.395l4.044 2.136V8.235a1.99 1.99 0 0 1-.995-1.72 2 2 0 0 1 4 0c0 .741-.407 1.38-1.005 1.726zm-7.963-3.627c-.786-.377-2.866-1.122-7.055-1.122-4.215 0-6.248.792-6.983 1.173v7.411l6.494-3.457a.997.997 0 0 1 .937-.005l6.607 3.489V4.614zm-7.062 6.018L3.077 17.46l12.885 6.905 12.925-6.885z"
            fill="currentColor" stroke="none" class="nc-icon-wrapper"/>
    </g>
  </symbol>
  <symbol id="arc-fire" viewBox="0 0 32 32">
    <g class="nc-icon-wrapper">
      <path transform="matrix(1 0 0 -1 0 30)"
            d="M15.888-1.978c-7.539 0-12.887 5.228-12.887 12.431 0 3.824 2.293 7.944 2.391 8.116.199.355.59.547.998.502.403-.052.735-.343.84-.736.006-.024.624-2.336 1.44-3.62.547-.864 1.103-1.475 1.728-1.899-.423 1.833-.747 4.591-.22 7.421 1.448 7.768 7.562 9.626 7.824 9.701a1 1 0 0 0 1.258-1.15c-.01-.054-1.02-5.493 1.123-10.127.194-.421.466-.91.758-1.4.083.673.212 1.387.41 2.08.786 2.75 2.819 3.688 2.905 3.726a1.002 1.002 0 0 0 1.392-1.095c-.01-.067-.294-1.938 1.298-4.592 1.437-2.396 1.853-3.949 1.853-6.927 0-7.203-5.514-12.43-13.111-12.43zM6.115 15.385c-.549-1.384-1.114-3.226-1.114-4.931C5 4.41 9.507.024 15.887.024c6.438 0 11.11 4.386 11.11 10.43 0 2.61-.322 3.822-1.567 5.898-.832 1.387-1.243 2.633-1.44 3.625a4.689 4.689 0 0 1-.516-1.183c-.61-2.131-.456-4.623-.454-4.649a1 1 0 0 0-1.814-.644c-.075.107-1.854 2.624-2.638 4.32-1.628 3.519-1.6 7.323-1.434 9.515-1.648-.96-4.177-3.105-4.99-7.466-.79-4.244.746-8.488.763-8.53a1.002 1.002 0 0 0-1.167-1.332c-.124.031-2.939.763-4.76 3.635-.326.514-.618 1.136-.865 1.742z"
            fill="currentColor" stroke="none" class="nc-icon-wrapper"/>
    </g>
  </symbol>
  <symbol id="arc-eyeglass" viewBox="0 0 32 32">
    <g class="nc-icon-wrapper">
      <path transform="matrix(1 0 0 -1 0 30)"
            d="M32.043 9.632c-.03.432-1.656 9.978-1.91 11.507-.025.146-.045.302-.066.467C29.87 23.142 29.503 26 24.896 26a1 1 0 1 1 0-2c2.847 0 2.998-1.169 3.187-2.65.025-.189.048-.37.076-.54.117-.703.647-3.504 1.105-6.281a6.94 6.94 0 0 1-4.223 1.431c-2.551 0-4.822-1.373-6.07-3.417-.601.227-1.62.51-2.982.51-1.342 0-2.328-.285-2.938-.534a6.97 6.97 0 0 1-6.009 3.442 7.112 7.112 0 0 1-4.432-1.558c.463 2.812 1.012 5.689 1.131 6.407.029.17.052.35.076.54.19 1.48.34 2.65 3.188 2.65a1 1 0 1 1 0 2c-4.608 0-4.975-2.859-5.171-4.395-.022-.164-.041-.32-.066-.467C1.513 19.61-.013 10.127-.043 9.694a.998.998 0 0 1 .023-.28c-.01-.144-.022-.288-.022-.434C-.042 5.125 3.188 2 7.042 2a6.98 6.98 0 0 1 6.98 6.98c0 .583-.08 1.146-.215 1.687.41.165 1.151.385 2.182.385a6.637 6.637 0 0 0 2.197-.354 6.774 6.774 0 0 1-.23-1.718c0-3.855 3.23-6.98 7.085-6.98s6.98 3.125 6.98 6.98c0 .104-.012.206-.016.31.03.109.047.223.038.342zM7.042 4C4.286 4 1.958 6.28 1.958 8.98s2.328 4.979 5.084 4.979c2.746 0 4.98-2.234 4.98-4.98S9.788 4 7.042 4zm17.999 0c-2.756 0-5.084 2.28-5.084 4.98s2.328 4.979 5.084 4.979a4.984 4.984 0 0 0 4.858-3.9c.02-.204.037-.396.05-.571a.844.844 0 0 1 .058-.24c.005-.09.013-.178.013-.27a4.985 4.985 0 0 0-4.979-4.978z"
            fill="currentColor" stroke="none" class="nc-icon-wrapper"/>
    </g>
  </symbol>
  <symbol id="arc-user-plus" viewBox="0 0 32 32">
    <g class="nc-icon-wrapper">
      <path transform="matrix(1 0 0 -1 0 30)"
            d="M2.002 2.041c0 .795.597 1.044.835 1.154L11.62 7.34a1.999 1.999 0 0 1 .415 3.376C9.958 12.384 8.99 16.05 8.99 18.003V23c0 2.09 3.637 4.995 7.004 4.995 3.396 0 6.997-2.86 6.997-4.995v-4.998c0-1.923-.8-5.603-2.945-7.292a2 2 0 0 1 .402-3.389L23.446 5.9l.494 1.996-2.657 1.243c2.77 2.181 3.708 6.464 3.708 8.864V23c0 3.31-4.582 6.995-8.997 6.995-4.416 0-9.004-3.685-9.004-6.995v-4.998c0-2.183.996-6.601 3.793-8.846L2.001 5.011S.002 4.121.002 3.012v-3c0-1.105.895-2 1.999-2h21.997v2H2.002V2.04zm28.996 1.963h-3v3a1 1 0 0 1-2 0v-3h-3a1 1 0 0 1 0-2h3v-3a1 1 0 0 1 2 0v3h3a1 1 0 0 1 0 2z"
            fill="currentColor" stroke="none" class="nc-icon-wrapper"/>
    </g>
  </symbol>
  <symbol id="arc-cursor-move" viewBox="0 0 32 32">
    <g class="nc-icon-wrapper">
      <path transform="matrix(1 0 0 -1 0 30)"
            d="M31.762 14.48l-.264.252c-.005.005-.011.007-.017.012l-4.054 3.701a.771.771 0 0 1-1.058 0l-.171-.252c-.292-.28-.197-.732.095-1.01l2.39-2.168H17.077v11.667l2.167-2.389c.28-.292.731-.387 1.01-.095l.252.171c.28.293.28.765 0 1.058l-3.536 3.874a.996.996 0 0 1-.385.416l-.044.046a.7.7 0 0 1-1.016 0l-.253-.264c-.005-.005-.006-.012-.011-.017l-3.61-3.992a.772.772 0 0 1 0-1.057l.253-.171c.279-.292.732-.198 1.011.094l2.161 2.41v-11.75H3.317l2.39 2.167c.292.28.387.732.095 1.01l-.17.253a.772.772 0 0 1-1.058 0L.699 14.909a.999.999 0 0 1-.415-.384l-.046-.045a.7.7 0 0 1 0-1.017l.264-.252c.005-.005.012-.006.017-.011L4.51 9.59a.773.773 0 0 1 1.057 0l.171.253c.292.28.197.732-.095 1.011l-2.41 2.161h11.844V1.235l-2.161 2.41c-.28.292-.732.386-1.011.094l-.252-.17a.772.772 0 0 1 0-1.058l3.609-3.992c.005-.005.006-.011.01-.016l.254-.265a.7.7 0 0 1 1.016 0l.253.265c.005.005.007.01.011.016l3.701 4.055c.28.292.28.764 0 1.057l-.252.171c-.28.292-.731.197-1.01-.095l-2.167-2.39v11.699h11.686l-2.41-2.161c-.291-.28-.386-.733-.094-1.012l.171-.252a.772.772 0 0 1 1.057 0l3.992 3.61c.005.005.011.006.017.01l.265.253a.698.698 0 0 1 0 1.016z"
            fill="currentColor" stroke="none" class="nc-icon-wrapper"/>
    </g>
  </symbol>
  <symbol id="arc-crop" viewBox="0 0 32 32">
    <g class="nc-icon-wrapper">
      <path transform="matrix(1 0 0 -1 0 30)"
            d="M31 5h-4v18.56l3.733 3.727a1.001 1.001 0 0 1-1.415 1.415L25.612 25H7v4a1 1 0 1 1-2 0v-4H1a1 1 0 1 1 0-2h4V4c0-.092.03-.175.053-.259.01-.038.007-.077.022-.114.1-.252.3-.45.552-.552.043-.018.09-.016.134-.027C5.84 3.028 5.915 3 6 3h19v-4a1 1 0 1 1 2 0v4h4a1 1 0 1 1 0 2zm-7.391 18L7 6.413V23h16.609zM8.415 5L25 21.562V5z"
            fill="currentColor" stroke="none" class="nc-icon-wrapper"/>
    </g>
  </symbol>
  <symbol id="arc-bell" viewBox="0 0 32 32">
    <g class="nc-icon-wrapper">
      <path transform="matrix(1 0 0 -1 0 30)"
            d="M28.3 7.753c-1.166 1.42-2.765 3.43-2.765 5.48v6.53c0 5.626-4.207 10.203-9.584 10.203S6.4 25.389 6.4 19.763v-6.53c0-2.016-1.734-3.921-2.833-5.4-.989-1.328-1.77-2.378-1.243-3.427.464-.923 1.624-1.041 2.583-1.041h5.73a5.334 5.334 0 0 1 10.668 0h5.864c.61 0 2.036 0 2.527 1.037.496 1.051-.297 2.016-1.395 3.351zM15.97.13a3.241 3.241 0 0 0-3.241 3.236h6.482A3.24 3.24 0 0 0 15.969.129zm11.2 5.365H4.905c-.153 0-.28.005-.386.011.206.32.508.727.754 1.058 1.219 1.638 3.255 3.95 3.255 6.67v6.53c0 4.452 3.22 8.073 7.423 8.073s7.455-3.621 7.455-8.073v-6.53c0-2.813 1.877-5.164 3.249-6.832.23-.28.507-.617.722-.905a8.881 8.881 0 0 0-.21-.002z"
            fill="currentColor" stroke="none" class="nc-icon-wrapper"/>
    </g>
  </symbol>
  <symbol id="arc-speech" viewBox="0 0 32 32">
    <g class="nc-icon-wrapper">
      <path transform="matrix(1 0 0 -1 0 30)"
            d="M30 28.012H2a2 2 0 0 1-2-2V7.965a2 2 0 0 1 2-2h3.986V.987a.999.999 0 0 1 1.7-.713l5.782 5.691H30a2 2 0 0 1 2 2v18.047a2 2 0 0 1-2 2zm0-20.046H12.65L7.986 3.375v4.591H2v18.047h28V7.966zM7 15.969h18a1 1 0 0 1 0 2H7a1 1 0 0 1 0-2zm0 4h18a1 1 0 0 1 0 2H7a1 1 0 0 1 0-2zm0-8h12a1 1 0 0 1 0 2H7a1 1 0 0 1 0-2z"
            fill="currentColor" stroke="none" class="nc-icon-wrapper"/>
    </g>
  </symbol>
  <symbol id="arc-pin" viewBox="0 0 32 32">
    <g class="nc-icon-wrapper">
      <path transform="matrix(1 0 0 -1 0 30)"
            d="M31.714 18.136L20.21 29.697a.999.999 0 0 1-1.665-.409c-.692-2.228-.772-4.244-.243-6.083a.982.982 0 0 1-.138-.113l-5.347-5.346c-1.725.8-3.58 1.233-5.428 1.233-1.175 0-2.327-.174-3.424-.515a1.002 1.002 0 0 1-.412-1.66l6.843-6.887L.827.198l-.832-2.192 2.012.778 9.792 9.72 6.932-6.977a.998.998 0 0 1 1.665.408c.905 2.914.64 6.043-.636 8.848l5.46 5.46c.02.02.033.042.05.063a9.286 9.286 0 0 1 2.565-.362c1.1 0 2.267.158 3.468.532a1 1 0 0 1 .411 1.66zM18.85 4.245L6.262 16.913c3.23.377 6.714-.925 9.236-3.447 2.51-2.51 3.735-5.978 3.35-9.222zm-.092 8.362a14.248 14.248 0 0 1-4.124 4.127l4.504 4.503a11.004 11.004 0 0 1 1.781-2.291 10.942 10.942 0 0 1 2.363-1.815zm3.575 7.753c-1.923 1.923-2.664 4.066-2.271 6.652l8.966-9.012c-2.583-.37-4.738.403-6.695 2.36z"
            fill="currentColor" stroke="none" class="nc-icon-wrapper"/>
    </g>
  </symbol>
  <symbol id="arc-layers" viewBox="0 0 32 32">
    <g class="nc-icon-wrapper">
      <path transform="matrix(1 0 0 -1 0 30)"
            d="M.682 20.569l14.847-8.085a1.003 1.003 0 0 1 .953-.003l15.003 8.085a.998.998 0 0 1-.021 1.772l-14.848 7.54a1.003 1.003 0 0 1-.902.002L.712 22.34a1 1 0 0 1-.03-1.772zm15.479 7.297l12.692-6.446L16.01 14.5 3.318 21.41zm15.13-12.876l-2.967 1.507-2.143-1.155 2.5-1.27-12.842-6.92-12.694 6.912 2.666 1.34-2.136 1.164L.54 14.993a1 1 0 0 1-.03-1.772l14.847-8.085a1.003 1.003 0 0 1 .953-.002l15.003 8.085a.998.998 0 0 1-.021 1.771zm.001-7l-2.811 1.382-2.143-1.155 2.344-1.145L15.84.152 3.146 7.064l2.478 1.12L3.488 9.35.54 7.992a1 1 0 0 1-.03-1.771l14.847-8.085a1.003 1.003 0 0 1 .953-.002l15.003 8.085a.998.998 0 0 1-.02 1.771z"
            fill="currentColor" stroke="none" class="nc-icon-wrapper"/>
    </g>
  </symbol>
  <symbol id="arc-frame" viewBox="0 0 32 32">
    <g class="nc-icon-wrapper">
      <path transform="matrix(1 0 0 -1 0 30)"
            d="M7 26.5H1a1 1 0 0 1-1-1v-6a1 1 0 0 1 2 0v5h5a1 1 0 0 1 0 2zm24-17a1 1 0 0 1-1-1v-5h-5a1 1 0 0 1 0-2h6a1 1 0 0 1 1 1v6a1 1 0 0 1-1 1zm-24-6H2v5a1 1 0 0 1-2 0v-6a1 1 0 0 1 1-1h6a1 1 0 0 1 0 2zm24 23h-6a1 1 0 0 1 0-2h5v-5a1 1 0 0 1 2 0v6a1 1 0 0 1-1 1z"
            fill="currentColor" stroke="none" class="nc-icon-wrapper"/>
    </g>
  </symbol>
  <symbol id="arc-people" viewBox="0 0 32 32">
    <g class="nc-icon-wrapper">
      <path transform="matrix(1 0 0 -1 0 30)"
            d="M23.313 3.897l-6.296 3.488c2.34 1.841 2.975 5.46 2.975 7.488v4.222c0 2.796-3.715 5.91-7.446 5.91s-7.544-3.114-7.544-5.91v-4.222c0-1.845.78-5.576 3.144-7.472L1.688 3.898S0 3.146 0 2.208V-.326c0-.932.757-1.69 1.688-1.69h21.625A1.69 1.69 0 0 1 25-.325v2.534c0 .994-1.689 1.69-1.689 1.69zM23-.014h-21v1.788c.143.104.343.225.501.298.047.021.094.044.139.069L9.1 5.643a2 2 0 0 1 .298 3.319c-1.677 1.344-2.396 4.322-2.396 5.91v4.223c0 1.437 2.708 3.91 5.544 3.91 2.889 0 5.447-2.44 5.447-3.91v-4.222c0-1.567-.487-4.558-2.212-5.915a2.003 2.003 0 0 1 .278-3.329l6.296-3.487c.055-.031.126-.064.184-.09.148-.062.329-.166.462-.258v-1.81zm7.31 8.892l-6.389 3.488c2.34 1.84 3.07 5.459 3.07 7.487v4.223c0 2.796-3.809 5.941-7.54 5.941-2.425 0-4.905-1.318-6.348-3.007.823-.051 1.73-.052 2.515-.302a6.22 6.22 0 0 0 3.833 1.309c2.888 0 5.54-2.47 5.54-3.942v-4.222c0-1.567-.58-4.558-2.306-5.915a2.003 2.003 0 0 1 .278-3.329l6.39-3.487c.055-.031.126-.064.184-.09.148-.062.329-.166.462-.258V4.994h-4.037c.61-.46.794-1.118 1.03-2h3.32A1.69 1.69 0 0 1 32 4.684v2.503c-.001.995-1.69 1.69-1.69 1.69z"
            fill="currentColor" stroke="none" class="nc-icon-wrapper"/>
    </g>
  </symbol>
  <symbol id="arc-trash" viewBox="0 0 32 32">
    <g class="nc-icon-wrapper">
      <path transform="matrix(1 0 0 -1 0 30)"
            d="M28.025 25.03h-7.04v2.727c0 1.267-1.031 2.266-2.298 2.266h-5.374c-1.267 0-2.298-.999-2.298-2.266V25.03h-7.04a1 1 0 0 1 0-2h1.376L7.67-.092a2.128 2.128 0 0 1 2.098-1.93H22.23c1.08 0 2 .848 2.097 1.92l2.322 23.133h1.375a1 1 0 0 1 0 2zm-15.01 2.727c0 .164.134.297.298.297h5.374a.298.298 0 0 0 .298-.297V25.03h-5.97zM22.337.087c-.005-.055-.07-.11-.106-.11H9.77c-.035 0-.101.054-.107.12L7.36 23.03h17.278z"
            fill="currentColor" stroke="none" class="nc-icon-wrapper"/>
    </g>
  </symbol>
  <symbol id="arc-size-actual" viewBox="0 0 32 32">
    <g class="nc-icon-wrapper">
      <path transform="matrix(1 0 0 -1 0 30)"
            d="M11.975 19.163l-.021 7.219c-.009.404-.344.644-.748.654h-.513c-.404.01-.724-.343-.716-.746l.028-4.852-8.32 8.242A1 1 0 1 1 .27 28.266l8.285-8.207-4.721-.012c-.404.009-.779-.27-.84-.746l.001-.513a.773.773 0 0 1 .747-.748l7.172.031c.008 0 .013-.003.02-.003l.366-.009a.69.69 0 0 1 .513.205c.131.13.178.31.174.513l-.04.366c.001.007.028.013.028.02zm8.212-.9a.691.691 0 0 1 .512-.204l.366.008c.007 0 .012.003.02.004l7.172-.031a.772.772 0 0 1 .747.748l.001.513c-.061.476-.436.755-.84.746l-4.721.012 8.285 8.207a1 1 0 1 1-1.414 1.414l-8.32-8.241.027 4.85c.01.405-.311.756-.716.747h-.513c-.405-.01-.739-.25-.747-.654l-.021-7.22c0-.006.027-.011.027-.019l-.04-.366c-.004-.203.043-.384.175-.513zm-8.374-8.495a.694.694 0 0 1-.513.204l-.365-.009c-.007 0-.012-.003-.02-.003l-7.173.031a.772.772 0 0 1-.747-.747l-.001-.514c.061-.475.436-.755.84-.745l4.726-.013L.27-.266A1 1 0 1 1 1.684-1.68l8.321 8.268-.028-4.877c-.009-.405.312-.756.716-.747l.513.001c.405.01.74.25.748.654l.021 7.219c0 .007-.028.011-.028.019l.04.397c.004.203-.043.384-.174.514zm11.626-1.796l4.727.013c.404-.01.778.27.84.745l-.001.514a.772.772 0 0 1-.748.747h-7.172c-.008 0-.013.004-.02.004l-.428.008c-.201.006-.384-.136-.512-.267-.132-.13-.179-.31-.175-.513l.04-.366c0-.007-.028-.012-.028-.019l.021-7.219c.01-.404.343-.644.748-.654l.544-.001c.405-.009.725.343.716.747l-.028 4.829 8.352-8.22A1 1 0 1 1 31.73-.264z"
            fill="currentColor" stroke="none" class="nc-icon-wrapper"/>
    </g>
  </symbol>
  <symbol id="arc-share" viewBox="0 0 32 32">
    <g class="nc-icon-wrapper">
      <path transform="matrix(1 0 0 -1 0 30)"
            d="M27 8c-1.647 0-3.103-.8-4.013-2.028l-13.168 6.71A5 5 0 0 1 10 14c0 .572-.1 1.119-.277 1.63l13.242 6.426A4.988 4.988 0 0 1 27 20a5 5 0 1 1-5 5c0-.389.049-.765.133-1.128L8.7 17.354A4.98 4.98 0 0 1 5 19 5 5 0 1 1 5 9c1.59 0 3.004.744 3.92 1.902l13.222-6.739A4.985 4.985 0 0 1 22 3a5 5 0 1 1 5 5zm0 20a3 3 0 1 0 0-6.001A3 3 0 0 0 27 28zM5 11a3 3 0 1 0 0 6 3 3 0 0 0 0-6zM27 0a3 3 0 1 0 .001 6 3 3 0 0 0 0-6z"
            fill="currentColor" stroke="none" class="nc-icon-wrapper"/>
    </g>
  </symbol>
  <symbol id="arc-question" viewBox="0 0 32 32">
    <g class="nc-icon-wrapper">
      <path transform="matrix(1 0 0 -1 0 30)"
            d="M16 30C7.164 30 0 22.837 0 14S7.163-2 16-2s16 7.163 16 16c0 8.836-7.163 16-16 16zM16-.031C8.28-.031 2 6.28 2 14c0 7.72 6.28 14 14 14s14-6.28 14-14S23.72-.031 16-.031zm-1.47 5.016h2.515v2.539H14.53zm1.44 18.03c-1.464 0-2.671-.395-3.62-1.184-.947-.79-1.408-2.371-1.385-3.681l.037-.073h2.295c0 .782.26 1.905.782 2.308.52.402 1.151.604 1.892.604.854 0 1.51-.232 1.971-.696.46-.464.69-1.128.69-1.99 0-.724-.17-1.343-.512-1.855-.342-.513-.916-1.245-1.721-2.198-.831-.749-1.344-1.351-1.539-1.806-.195-.456-.297-1.274-.304-2.454h2.405c0 .74.047 1.286.14 1.636.093.349.36.744.799 1.184.945.91 1.703 1.802 2.278 2.673.573.87.86 1.831.86 2.881 0 1.465-.443 2.607-1.331 3.424-.888.818-2.134 1.227-3.736 1.227z"
            fill="currentColor" stroke="none" class="nc-icon-wrapper"/>
    </g>
  </symbol>
  <symbol id="arc-microphone" viewBox="0 0 32 32">
    <g class="nc-icon-wrapper">
      <path transform="matrix(1 0 0 -1 0 30)"
            d="M15.965 8h.238C18.983 8 21 10.05 21 12.874v11.919C21 27.713 18.893 30 16.202 30h-.237C13.227 30 11 27.664 11 24.793V12.874C11 10.095 13.135 8 15.965 8zM13 24.793C13 26.561 14.33 28 15.965 28h.237C17.797 28 19 26.621 19 24.793V12.874C19 11.155 17.876 10 16.202 10h-.237C14.219 10 13 11.181 13 12.874zM25 19a1 1 0 0 1-1-1v-4.159C24 7.891 21.876 5 17.508 5h-2.973C8.823 5 8 9.807 8 13.841V18a1 1 0 0 1-2 0v-4.159C6 6.951 8.871 3 14.535 3H15V0h-5a1 1 0 0 1 0-2h12a1 1 0 0 1 0 2h-5v3h.508C21.382 3 26 4.881 26 13.841V18a1 1 0 0 1-1 1z"
            fill="currentColor" stroke="none" class="nc-icon-wrapper"/>
    </g>
  </symbol>
  <symbol id="arc-size-fullscreen" viewBox="0 0 32 32">
    <g class="nc-icon-wrapper">
      <path transform="matrix(1 0 0 -1 0 30)"
            d="M21.434 18.026l8.602 8.549-.028-4.846c-.009-.404.312-.756.716-.747h.513c.405.01.74.25.748.655l.021 7.219c0 .007-.027.012-.027.02l.039.365c.004.203-.043.384-.174.514a.692.692 0 0 1-.513.204l-.365-.008c-.007 0-.013-.003-.02-.004l-7.172.032a.771.771 0 0 1-.747-.748l-.001-.513c.061-.476.436-.755.84-.746l4.726-.013-8.571-8.519a1 1 0 0 1 1.414-1.415zM10.597 9.975L1.995 1.452l.027 4.82c.01.404-.311.756-.715.747l-.545-.001c-.405-.01-.739-.25-.748-.655l-.02-7.219c0-.007.027-.011.027-.02l-.04-.364c-.004-.203.044-.385.175-.514a.69.69 0 0 1 .512-.205l.366.01.02.002 7.203-.031c.404.01.738.344.747.748l.001.513c-.061.476-.436.755-.84.746L3.44.042 12.01 8.56a1 1 0 0 1-1.414 1.415zm21.41-10.83l-.02 7.219c-.01.404-.344.644-.748.654l-.513.001c-.404.01-.724-.343-.716-.747l.028-4.846-8.602 8.549A1 1 0 1 1 20.02 8.56L28.59.042 23.867.03c-.404.009-.779-.27-.84-.746v-.514a.773.773 0 0 1 .748-.748l7.172.032c.008 0 .013-.003.02-.003l.366-.01a.691.691 0 0 1 .512.206c.131.129.178.31.175.513l-.04.365c0 .008.028.013.028.02zM3.44 27.959l4.727.012c.404-.009.779.27.84.746l-.001.514a.772.772 0 0 1-.748.747l-7.203-.03c-.008 0-.013.003-.02.003l-.366.008a.69.69 0 0 1-.512-.204c-.131-.13-.179-.31-.174-.514l.039-.366c0-.007-.027-.012-.027-.02l.02-7.218c.01-.404.344-.645.748-.654h.545c.404-.01.724.342.715.746l-.027 4.82 8.602-8.523a1 1 0 1 1 1.414 1.414z"
            fill="currentColor" stroke="none" class="nc-icon-wrapper"/>
    </g>
  </symbol>
  <symbol id="arc-home" viewBox="0 0 32 32">
    <g class="nc-icon-wrapper">
      <path transform="matrix(1 0 0 -1 0 30)"
            d="M31.772 13.957L16.76 29.681a.998.998 0 0 1-1.443 0L.228 13.958a1 1 0 1 1 1.444-1.384l1.344 1.4V-.988a1 1 0 0 1 1-1h6.986a1 1 0 0 1 1 .997l.031 9.99h7.969V-.99a1 1 0 0 1 1-1h6.983a1 1 0 0 1 1 1V13.98l1.344-1.408a1 1 0 1 1 1.443 1.386zm-4.787 1.83V.011h-4.983v9.986a1 1 0 0 1-1 1h-9.965a1 1 0 0 1-1-.997L10.005.01H5.016v15.777c0 .083-.013.162-.032.239L16.04 27.545l10.982-11.506a.975.975 0 0 1-.036-.252z"
            fill="currentColor" stroke="none" class="nc-icon-wrapper"/>
    </g>
  </symbol>
  <symbol id="arc-grid" viewBox="0 0 32 32">
    <g class="nc-icon-wrapper">
      <path transform="matrix(1 0 0 -1 0 30)"
            d="M30-2H20a2 2 0 0 0-2 2v10a2 2 0 0 0 2 2h10a2 2 0 0 0 2-2V0a2 2 0 0 0-2-2zm0 12H20V0h10v10zm0 6H20a2 2 0 0 0-2 2v10a2 2 0 0 0 2 2h10a2 2 0 0 0 2-2V18a2 2 0 0 0-2-2zm0 12H20V18h10v10zM12-2H2a2 2 0 0 0-2 2v10a2 2 0 0 0 2 2h10a2 2 0 0 0 2-2V0a2 2 0 0 0-2-2zm0 12H2V0h10v10zm0 6H2a2 2 0 0 0-2 2v10a2 2 0 0 0 2 2h10a2 2 0 0 0 2-2V18a2 2 0 0 0-2-2zm0 12H2V18h10v10z"
            fill="currentColor" stroke="none" class="nc-icon-wrapper"/>
    </g>
  </symbol>
  <symbol id="arc-equalizer" viewBox="0 0 32 32">
    <g class="nc-icon-wrapper">
      <path transform="matrix(1 0 0 -1 0 30)"
            d="M5.002 17.879V29a1 1 0 0 1-2 0V17.88A4.015 4.015 0 0 1-.011 14a4.016 4.016 0 0 1 3.013-3.88V-1a1 1 0 0 1 2 0v11.12A4.015 4.015 0 0 1 8.01 14a4.015 4.015 0 0 1-3.01 3.879zm-.989-5.88h-.024a2.004 2.004 0 0 0-1.991 2c0 1.1.893 1.996 1.991 2.002L4.001 16l.012.001A2.004 2.004 0 0 0 6.003 14c0-1.1-.892-1.994-1.99-2.001zm12.989-.12v17.12a1 1 0 0 1-2 0V11.88c-1.729-.445-3.013-2.013-3.013-3.88s1.284-3.434 3.013-3.88V-1a1 1 0 0 1 2 0V4.12A4.015 4.015 0 0 1 20.011 8a4.016 4.016 0 0 1-3.009 3.879zm-.989-5.88h-.025a2.004 2.004 0 0 0-1.99 2c0 1.101.894 1.997 1.993 2.002l.011-.001h.009a2.004 2.004 0 0 0 1.992-2c0-1.1-.892-1.994-1.99-2.001zm12.989 17.88v5.12a1 1 0 0 1-2 0v-5.12c-1.73-.445-3.013-2.013-3.013-3.88s1.284-3.434 3.013-3.88V-1a1 1 0 0 1 2 0V16.12A4.015 4.015 0 0 1 32.01 20a4.016 4.016 0 0 1-3.009 3.879zm-.99-5.88h-.023a2.004 2.004 0 0 0-1.991 2c0 1.1.892 1.996 1.99 2.002l.013-.001h.011a2.005 2.005 0 0 0 1.99-2 2.002 2.002 0 0 0-1.99-2.001z"
            fill="currentColor" stroke="none" class="nc-icon-wrapper"/>
    </g>
  </symbol>
  <symbol id="arc-note" viewBox="0 0 32 32">
    <g class="nc-icon-wrapper">
      <path transform="matrix(1 0 0 -1 0 30)"
            d="M24.98-.009h-23v25h14.05l2.022 1.948-.052.052H1.98a2 2 0 0 1-2-2v-25a2 2 0 0 1 2-2h23a2 2 0 0 1 2 2v14.645l-2-1.909V-.009zm5.465 28.714c-.903.865-1.899 1.304-2.961 1.304-1.663 0-2.876-1.074-3.206-1.403-.468-.462-13.724-13.699-13.724-13.699a.864.864 0 0 1-.22-.38C9.977 13.201 8.177 7.31 8.159 7.25a.847.847 0 0 1 1.061-1.056c.061.02 6.14 1.986 7.141 2.285.132.039.252.11.35.207.632.623 12.817 12.618 13.803 13.637 1.019 1.052 1.526 2.145 1.507 3.253-.019 1.094-.551 2.147-1.575 3.129zm-1.369-4.99c-.556-.574-4.914-4.88-12.952-12.798l-.614-.606c-.922-.285-3.129-.994-4.797-1.532a394.843 394.843 0 0 1 1.47 4.929c1.717 1.715 13.074 13.055 13.505 13.48.084.085.851.821 1.795.821.536 0 1.053-.244 1.577-.747.627-.602.95-1.18.96-1.72.01-.556-.308-1.17-.944-1.827z"
            fill="currentColor" stroke="none" class="nc-icon-wrapper"/>
    </g>
  </symbol>
  <symbol id="arc-calendar" viewBox="0 0 32 32">
    <g class="nc-icon-wrapper">
      <path transform="matrix(1 0 0 -1 0 30)"
            d="M30 27.003h-8.007v1.993a1 1 0 1 1-2 0v-1.992h-8v1.992a1 1 0 1 1-2 0v-1.992H2a2 2 0 0 1-2-2v-25a2 2 0 0 1 2-2h28a2 2 0 0 1 2 2v25a2 2 0 0 1-2 2zM30 .005H2v25h7.993v-1.008a1 1 0 1 1 2 0v1.007h8v-1.007a1 1 0 1 1 2 0v1.007H30V.004zm-7 14h2a1 1 0 0 1 1 1v2a1 1 0 0 1-1 1h-2a1 1 0 0 1-1-1v-2a1 1 0 0 1 1-1zm0-8h2a1 1 0 0 1 1 1v2a1 1 0 0 1-1 1h-2a1 1 0 0 1-1-1v-2a1 1 0 0 1 1-1zm-6 4h-2a1 1 0 0 1-1-1v-2a1 1 0 0 1 1-1h2a1 1 0 0 1 1 1v2a1 1 0 0 1-1 1zm0 8h-2a1 1 0 0 1-1-1v-2a1 1 0 0 1 1-1h2a1 1 0 0 1 1 1v2a1 1 0 0 1-1 1zm-8 0H7a1 1 0 0 1-1-1v-2a1 1 0 0 1 1-1h2a1 1 0 0 1 1 1v2a1 1 0 0 1-1 1zm0-8H7a1 1 0 0 1-1-1v-2a1 1 0 0 1 1-1h2a1 1 0 0 1 1 1v2a1 1 0 0 1-1 1z"
            fill="currentColor" stroke="none" class="nc-icon-wrapper"/>
    </g>
  </symbol>
  <symbol id="arc-arrow-up-circle" viewBox="0 0 32 32">
    <g class="nc-icon-wrapper">
      <path transform="matrix(1 0 0 -1 0 30)"
            d="M32 14c0 8.837-7.163 16-16 16S0 22.837 0 14C0 5.164 7.163-2 16-2c8.836 0 16 7.163 16 16zM1.969 14c0 7.72 6.311 14 14.031 14 7.72 0 14-6.28 14-14S23.72 0 16 0 1.969 6.28 1.969 14zm15.042-7.01v11.264l3.617-3.617a1 1 0 1 1 1.414 1.414l-6.063 5.907-6.062-5.907a.996.996 0 0 1 0-1.414 1 1 0 0 1 1.414 0l3.68 3.68V6.99a1 1 0 0 1 2 0z"
            fill="currentColor" stroke="none" class="nc-icon-wrapper"/>
    </g>
  </symbol>
  <symbol id="arc-arrow-right-circle" viewBox="0 0 32 32">
    <g class="nc-icon-wrapper">
      <path transform="matrix(1 0 0 -1 0 30)"
            d="M16 30C7.164 30 0 22.837 0 14S7.163-2 16-2s16 7.163 16 16c0 8.836-7.163 16-16 16zM16-.031C8.28-.031 2 6.28 2 14c0 7.72 6.28 14 14 14s14-6.28 14-14S23.72-.031 16-.031zm.637 20.073a1 1 0 0 1 0-1.414l3.617-3.617H8.99a1 1 0 0 1 0-2h11.327l-3.68-3.68a1 1 0 1 1 1.414-1.414l5.907 6.063-5.907 6.062a1 1 0 0 1-1.414 0z"
            fill="currentColor" stroke="none" class="nc-icon-wrapper"/>
    </g>
  </symbol>
  <symbol id="arc-arrow-left-circle" viewBox="0 0 32 32">
    <g class="nc-icon-wrapper">
      <path transform="matrix(1 0 0 -1 0 30)"
            d="M16 30C7.163 30 0 22.837 0 14S7.163-2 16-2c8.836 0 16 7.163 16 16 0 8.836-7.163 16-16 16zM16-.031C8.28-.031 2 6.28 2 14c0 7.72 6.28 14 14 14s14-6.28 14-14S23.72-.031 16-.031zm7.01 15.042H11.746l3.617 3.617a1 1 0 1 1-1.414 1.414l-5.906-6.063 5.906-6.062a.996.996 0 0 1 1.414 0 1 1 0 0 1 0 1.414l-3.68 3.68H23.01a1 1 0 0 1 0 2z"
            fill="currentColor" stroke="none" class="nc-icon-wrapper"/>
    </g>
  </symbol>
  <symbol id="arc-arrow-down-circle" viewBox="0 0 32 32">
    <g class="nc-icon-wrapper">
      <path transform="matrix(1 0 0 -1 0 30)"
            d="M0 14C0 5.163 7.163-2 16-2s16 7.163 16 16c0 8.836-7.163 16-16 16-8.836 0-16-7.163-16-16zm30.032 0C30.032 6.28 23.72 0 16 0S2 6.28 2 14s6.28 14 14 14 14.032-6.28 14.032-14zm-15.043 7.01V9.746l-3.617 3.618a1 1 0 1 1-1.414-1.414l6.063-5.907 6.062 5.907a.996.996 0 0 1 0 1.414 1 1 0 0 1-1.414 0l-3.679-3.68V21.01a1 1 0 0 1-2 0z"
            fill="currentColor" stroke="none" class="nc-icon-wrapper"/>
    </g>
  </symbol>
  <symbol id="arc-check" viewBox="0 0 32 32">
    <g class="nc-icon-wrapper">
      <path transform="matrix(1 0 0 -1 0 30)"
            d="M16 30C7.164 30 0 22.837 0 14S7.163-2 16-2s16 7.163 16 16c0 8.836-7.163 16-16 16zM16-.031C8.28-.031 2 6.28 2 14c0 7.72 6.28 14 14 14s14-6.28 14-14S23.72-.031 16-.031zm6.386 19.886l-9.388-9.447-4.228 4.228a1 1 0 0 1-1.414-1.414l4.95-4.95a1.001 1.001 0 0 1 1.532.145L23.8 18.44a1.001 1.001 0 0 1-1.415 1.414z"
            fill="currentColor" stroke="none" class="nc-icon-wrapper"/>
    </g>
  </symbol>
  <symbol id="arc-close" viewBox="0 0 32 32">
    <g class="nc-icon-wrapper">
      <path transform="matrix(1 0 0 -1 0 30)"
            d="M16 30C7.164 30 0 22.837 0 14S7.163-2 16-2s16 7.163 16 16c0 8.836-7.163 16-16 16zM16-.031C8.28-.031 2 6.28 2 14c0 7.72 6.28 14 14 14s14-6.28 14-14S23.72-.031 16-.031zm5.657 19.688a1 1 0 0 1-1.414 0L16 15.414l-4.242 4.243a1 1 0 0 1-1.415-1.415L14.586 14l-4.243-4.242a1 1 0 1 1 1.415-1.415L16 12.586l4.242-4.243a1 1 0 1 1 1.415 1.415L17.413 14l4.242 4.242a.999.999 0 0 1 0 1.414z"
            fill="currentColor" stroke="none" class="nc-icon-wrapper"/>
    </g>
  </symbol>
  <symbol id="arc-cloud-download" viewBox="0 0 32 32">
    <g class="nc-icon-wrapper">
      <path transform="matrix(1 0 0 -1 0 30)"
            d="M23.845 21.875c-1.395 3.701-4.393 6.045-8.921 6.045-5.762 0-9.793-4.278-10.14-9.86C2.006 17.17 0 14.337 0 11.127c0-3.93 3.09-7.249 6.745-7.249h.889a1 1 0 0 1 0 2h-.89c-2.571 0-4.775 2.404-4.775 5.249 0 2.515 1.763 4.783 3.974 5.163l.908.157-.081.917-.008.011c0 4.871 3.206 8.545 8.162 8.545 3.972 0 6.204-1.957 7.236-5.295l.214-.688.72-.016c3.715-.078 6.972-3.092 6.972-6.837 0-3.408-2.258-7.206-5.678-7.206h-.285a1 1 0 0 1 0-2v.003c5 .132 7.883 4.909 7.883 9.203-.001 4.617-3.619 8.304-8.141 8.791zM20.198 5.767a.692.692 0 0 1-1.01 0l-2.2-2.427v10.067a1 1 0 0 1-2 0V3.331L12.86 5.704c-.28.292-.733.355-1.012.063l-.252-.138a.771.771 0 0 1 0-1.057L15.206.58c.005-.005.006-.012.01-.017L15.469.3a.696.696 0 0 1 .509-.218.692.692 0 0 1 .507.218l.253.264c.005.005.008.01.012.017l3.7 4.054c.28.292.28.64 0 .932z"
            fill="currentColor" stroke="none" class="nc-icon-wrapper"/>
    </g>
  </symbol>
  <symbol id="arc-cloud-upload" viewBox="0 0 32 32">
    <g class="nc-icon-wrapper">
      <path transform="matrix(1 0 0 -1 0 30)"
            d="M23.845 21.876c-1.395 3.701-4.393 6.045-8.921 6.045-5.762 0-9.794-4.278-10.14-9.86C2.006 17.172 0 14.338 0 11.128c0-3.93 3.09-7.249 6.745-7.249h2.889a1 1 0 0 1 0 2h-2.89c-2.571 0-4.775 2.404-4.775 5.249 0 2.515 1.763 4.783 3.974 5.163l.908.157-.081.916-.007.012c0 4.87 3.205 8.545 8.16 8.545 3.973 0 6.204-1.957 7.236-5.295l.214-.689.72-.015c3.716-.078 6.973-3.092 6.973-6.837 0-3.408-2.259-7.206-5.678-7.206h-2.285a1 1 0 0 1 0-2l2.277.003c5 .132 7.605 4.908 7.605 9.203 0 4.616-3.618 8.304-8.14 8.791zm-7.095-7.968c-.006.006-.008.011-.012.016l-.253.265a.69.69 0 0 1-.507.218.696.696 0 0 1-.509-.218l-.253-.265c-.005-.005-.006-.01-.01-.016l-3.61-3.992a.772.772 0 0 1 0-1.057l.252-.171c.28-.292.733-.198 1.012.094l2.128 2.373V1.08a1 1 0 0 1 2 0v10.067l2.199-2.426c.28-.292.732-.387 1.01-.095l.253.171c.28.293.28.766 0 1.058z"
            fill="currentColor" stroke="none" class="nc-icon-wrapper"/>
    </g>
  </symbol>
  <symbol id="arc-eye" viewBox="0 0 32 32">
    <g class="nc-icon-wrapper">
      <path transform="matrix(1 0 0 -1 0 30)"
            d="M16.108 19.956a6 6 0 1 1 .001-12 6 6 0 0 1 0 12zm0-10c-2.205 0-4.046 1.838-4.046 4.044 0 2.205 1.795 4 4 4 2.206 0 4-1.795 4-4s-1.748-4.044-3.954-4.044zm15.882 4.276c-.012.05-.006.104-.021.153-.007.021-.02.033-.027.052-.011.028-.008.062-.023.09-2.908 6.659-9.177 10.492-15.857 10.492S2.988 21.193.078 14.533c-.012-.028-.01-.057-.02-.09-.007-.019-.022-.03-.028-.048-.016-.05-.01-.103-.02-.154a1.327 1.327 0 0 1-.035-.269c0-.092.017-.177.036-.268.01-.05.003-.105.019-.153.006-.022.02-.032.028-.052.01-.028.008-.062.02-.09C2.988 6.753 9.32 2.982 16 2.982s13.01 3.763 15.92 10.422c.015.029.012.059.023.09.007.018.02.031.026.05.016.05.01.103.022.154.017.09.034.177.034.27 0 .087-.017.174-.035.265zM16 4.982c-5.665 0-11.242 2.986-13.982 8.99 2.714 5.983 8.365 9.046 14.045 9.046 5.677 0 11.203-3.067 13.918-9.053C27.268 7.983 21.679 4.98 16 4.98z"
            fill="currentColor" stroke="none" class="nc-icon-wrapper"/>
    </g>
  </symbol>
  <symbol id="arc-info" viewBox="0 0 32 32">
    <g class="nc-icon-wrapper">
      <path transform="matrix(1 0 0 -1 0 30)"
            d="M18 7h-1v8.938c0 .01-.003.02-.003.031s.003.02.003.031a1 1 0 0 1-1 1h-2a1 1 0 0 1 0-2h1V7h-1a1 1 0 0 1 0-2h4a1 1 0 0 1 0 2zm-2 12a2 2 0 1 1 0 4 2 2 0 0 1 0-4zm0 11C7.164 30 0 22.837 0 14S7.163-2 16-2s16 7.163 16 16-7.163 16-16 16zM16-.031C8.28-.031 2 6.28 2 14c0 7.72 6.28 14 14 14s14-6.28 14-14S23.72-.03 16-.03z"
            fill="currentColor" stroke="none" class="nc-icon-wrapper"/>
    </g>
  </symbol>
  <symbol id="arc-link" viewBox="0 0 32 32">
    <g class="nc-icon-wrapper">
      <path transform="matrix(1 0 0 -1 0 30)"
            d="M9.24 7.111a.996.996 0 0 1 1.414 0L22.768 19.32a1 1 0 1 1-1.414 1.414L9.24 8.525a.999.999 0 0 1 0-1.414zm5.631 2.13c.33-1.458-.026-2.888-1.152-4.014l-4.04-3.914C8.83.463 7.7-.005 6.499-.005S4.166.463 3.316 1.313c-1.754 1.755-1.754 4.61-.01 6.354l3.945 4.071c.85.85 1.98 1.318 3.182 1.318a4.49 4.49 0 0 0 1.193-.18l1.561 1.561a6.48 6.48 0 0 1-7.35-1.286l-3.935-4.06A6.5 6.5 0 0 1 11.094-.1l4.03 3.904c1.941 1.942 2.361 4.648 1.332 7.023zM30.098 28.1a6.48 6.48 0 0 1-4.596 1.904 6.48 6.48 0 0 1-4.596-1.905l-4.03-3.904a6.497 6.497 0 0 1-1.243-7.439l1.552 1.552c-.46 1.534-.106 3.26 1.096 4.463l4.039 3.914c.85.85 1.98 1.318 3.182 1.318a4.472 4.472 0 0 0 3.182-1.318c1.754-1.755 1.754-4.61.01-6.354l-4.04-4.039a4.472 4.472 0 0 0-3.18-1.317c-.307 0-.577-.031-.87.028l-1.594-1.593c.796-.331 1.614-.436 2.463-.436 1.663 0 3.326.635 4.596 1.904l4.03 4.03a6.5 6.5 0 0 1-.001 9.192z"
            fill="currentColor" stroke="none" class="nc-icon-wrapper"/>
    </g>
  </symbol>
  <symbol id="arc-lock" viewBox="0 0 32 32">
    <g class="nc-icon-wrapper">
      <path transform="matrix(1 0 0 -1 0 30)"
            d="M25 18h-1v3.817C24 26.406 20.68 30 15.963 30 11.227 30 8 26.329 8 21.816V18H7c-2.206 0-4-1.794-4-4V2C3-.206 4.794-2 7-2h18c2.206 0 4 1.794 4 4v12c0 2.206-1.794 4-4 4zm-15 3.817C10 25.226 12.33 28 15.963 28 19.559 28 22 25.284 22 21.816V18H10v3.816zM27 2c0-1.103-.897-2-2-2H7C5.898 0 5 .897 5 2v12c0 1.103.898 2 2 2h18c1.103 0 2-.897 2-2V2zM16 12a2 2 0 0 1-2-2c0-.738.405-1.376 1-1.723V5a1 1 0 0 1 2 0v3.277A1.992 1.992 0 0 1 16 12z"
            fill="currentColor" stroke="none" class="nc-icon-wrapper"/>
    </g>
  </symbol>
  <symbol id="arc-lock-open" viewBox="0 0 32 32">
    <g class="nc-icon-wrapper">
      <path transform="matrix(1 0 0 -1 0 30)"
            d="M25 17.965H10.72l-.517 2.321c-.883 3.293.65 6.576 4.159 7.516 3.473.931 6.534-1.06 7.432-4.41l.424-1.686a1 1 0 0 1 1.933.518l-.426 1.686c-1.187 4.433-5.325 7.045-9.881 5.825-4.574-1.226-6.741-5.607-5.573-9.966l.402-1.803H7c-2.206 0-4-1.794-4-4v-12c0-2.206 1.794-4 4-4h18c2.206 0 4 1.794 4 4v12c0 2.206-1.794 4-4 4zm2-16c0-1.102-.897-2-2-2H7c-1.103 0-2 .898-2 2v12c0 1.103.897 2 2 2h18c1.103 0 2-.897 2-2v-12zm-11 10a2 2 0 0 1-2-2c0-.738.405-1.376 1-1.722V4.965a1 1 0 0 1 2 0v3.278a1.992 1.992 0 0 1-1 3.723z"
            fill="currentColor" stroke="none" class="nc-icon-wrapper"/>
    </g>
  </symbol>
  <symbol id="arc-magnifier" viewBox="0 0 32 32">
    <g class="nc-icon-wrapper">
      <path transform="matrix(1 0 0 -1 0 30)"
            d="M31.707-.283l-9.716 9.777a12.449 12.449 0 0 1 2.902 8.006c0 6.904-5.596 12.5-12.5 12.5s-12.5-5.596-12.5-12.5S5.49 5 12.393 5c3.137 0 6.002 1.158 8.197 3.067l9.703-9.764a1 1 0 0 1 1.414 1.415zM12.393 6.984c-5.808 0-10.516 4.708-10.516 10.516s4.708 10.517 10.516 10.517S22.91 23.308 22.91 17.5 18.2 6.984 12.393 6.984z"
            fill="currentColor" stroke="none" class="nc-icon-wrapper"/>
    </g>
  </symbol>
  <symbol id="arc-magnifier-add" viewBox="0 0 32 32">
    <g class="nc-icon-wrapper">
      <path transform="matrix(1 0 0 -1 0 30)"
            d="M31.707-.283l-8.845 8.9a12.987 12.987 0 0 1 3.034 8.365C25.896 24.172 20.1 30 12.91 30S-.107 24.172-.107 16.983 5.721 3.966 12.91 3.966c3.282 0 6.271 1.218 8.553 3.221l8.83-8.884a1 1 0 1 1 1.414 1.415zM12.893 6c-6.048 0-11 4.951-11 11s4.952 11 11 11c6.049 0 11-4.952 11-11s-4.951-11-11-11zm5 12h-4v4a1 1 0 0 1-2 0v-4h-4a1 1 0 0 1 0-2h4v-4a1 1 0 0 1 2 0v4h4a1 1 0 0 1 0 2z"
            fill="currentColor" stroke="none" class="nc-icon-wrapper"/>
    </g>
  </symbol>
  <symbol id="arc-magnifier-remove" viewBox="0 0 32 32">
    <g class="nc-icon-wrapper">
      <path transform="matrix(1 0 0 -1 0 30)"
            d="M31.707-.283l-8.845 8.9a12.987 12.987 0 0 1 3.034 8.365C25.896 24.172 20.1 30 12.91 30S-.107 24.172-.107 16.983 5.721 3.966 12.91 3.966c3.282 0 6.271 1.218 8.553 3.221l8.83-8.884a1 1 0 1 1 1.414 1.415zM12.893 6c-6.048 0-11 4.951-11 11s4.952 11 11 11c6.049 0 11-4.952 11-11s-4.951-11-11-11zm5 12h-10a1 1 0 0 1 0-2h10a1 1 0 0 1 0 2z"
            fill="currentColor" stroke="none" class="nc-icon-wrapper"/>
    </g>
  </symbol>
  <symbol id="arc-paper-clip" viewBox="0 0 32 32">
    <g class="nc-icon-wrapper">
      <path transform="matrix(1 0 0 -1 0 30)"
            d="M5.397-1.488c-1.356 0-2.658.56-3.696 1.6a5.94 5.94 0 0 0 0 8.372L19.645 27.54c2.8 2.804 7.09 2.552 10.22-.582 1.402-1.405 2.189-3.43 2.159-5.56-.03-2.106-.852-4.122-2.259-5.53L16.203 1.428a.997.997 0 0 0-1.413-.043 1.004 1.004 0 0 0-.043 1.417l13.584 14.46c1.062 1.065 1.672 2.575 1.694 4.165.023 1.59-.552 3.09-1.574 4.114-1.92 1.924-5.046 2.932-7.37.602L3.136 7.087C1.593 5.54 1.593 3.056 3.116 1.53 3.828.815 4.676.467 5.578.521c.893.055 1.811.513 2.585 1.289l14.28 15.198c.517.518 1.557 1.79.498 2.85-.599.601-1.02.564-1.159.552-.395-.035-.857-.308-1.337-.789L9.7 8.191a.997.997 0 0 0-1.414-.043 1.003 1.003 0 0 0-.042 1.416L19.01 21.016c.846.85 1.712 1.311 2.593 1.39.688.061 1.71-.085 2.753-1.131 1.548-1.551 1.356-3.826-.478-5.663L9.6.415C8.46-.729 7.083-1.394 5.702-1.479a4.431 4.431 0 0 0-.305-.01z"
            fill="currentColor" stroke="none" class="nc-icon-wrapper"/>
    </g>
  </symbol>
  <symbol id="arc-refresh" viewBox="0 0 32 32">
    <g class="nc-icon-wrapper">
      <path transform="matrix(1 0 0 -1 0 30)"
            d="M15.544 1.92c-.003.006-.009.01-.012.015l-2.873 4.49a.75.75 0 0 1-.991.266l-.256-.158c-.344-.187-.337-.673-.133-1.008L13.12 2.67c-.157.034-.315.062-.47.103a11.806 11.806 0 0 0-7.486 5.987 11.713 11.713 0 0 0-.766 8.992c.954 3.002 3.118 5.452 5.916 6.9a.97.97 0 1 1-.892 1.724c-3.259-1.686-5.763-4.54-6.874-8.036A13.643 13.643 0 0 1 3.44 7.866 13.76 13.76 0 0 1 12.16.893c.042-.011.086-.018.13-.029L9.747-.424a.673.673 0 0 1-.254-.949l.099-.255c.205-.335.557-.454.9-.266L15.144.488c.006.004.012.002.018.006l.312.171a.675.675 0 0 1 .332.422.672.672 0 0 1-.076.531zm13.015 18.055c-1.782 3.447-4.862 5.988-8.617 6.972-.268.07-.541.125-.814.179l2.494 1.265c.344.188.55.613.345.949l-.098.255a.751.751 0 0 1-.992.266l-4.65-2.381c-.006-.004-.012-.003-.018-.007l-.312-.17a.675.675 0 0 1-.332-.423.67.67 0 0 1 .077-.53l.185-.304c.003-.006.009-.01.012-.015l2.873-4.49a.749.749 0 0 1 .99-.265l.226.157c.344.187.367.673.164 1.007l-1.85 2.87c.406-.062.811-.137 1.207-.242 3.226-.845 5.856-3.027 7.387-5.986a11.712 11.712 0 0 0 .765-8.992 11.717 11.717 0 0 0-5.818-6.9.97.97 0 1 1 .894-1.724 13.64 13.64 0 0 1 6.775 8.035 13.646 13.646 0 0 1-.892 10.474z"
            fill="currentColor" stroke="none" class="nc-icon-wrapper"/>
    </g>
  </symbol>
  <symbol id="arc-reload" viewBox="0 0 32 32">
    <g class="nc-icon-wrapper">
      <path transform="matrix(1 0 0 -1 0 30)"
            d="M15.977 30C7.983 30 1.48 23.496 1.48 15.502c0-7.514 5.79-13.798 13.236-14.44l-2.87-1.455c-.355-.195-.566-.632-.356-.978l.102-.262a.773.773 0 0 1 1.021-.275L17.404.545c.006.004.013.003.019.007l.322.176a.699.699 0 0 1 .263.982l-.191.312c-.003.006-.009.01-.013.016l-2.959 4.624a.773.773 0 0 1-1.021.274l-.233-.162c-.354-.193-.378-.693-.168-1.038l1.746-2.708c-.009 0-.018.004-.027.004-6.54.429-11.662 5.907-11.662 12.47C3.48 22.393 9.086 28 15.977 28c6.892 0 12.53-5.606 12.53-12.498 0-3.968-1.822-7.613-5-9.999a1 1 0 0 1 1.202-1.6c3.686 2.769 5.799 6.996 5.799 11.599 0 7.994-6.536 14.498-14.53 14.498z"
            fill="currentColor" stroke="none" class="nc-icon-wrapper"/>
    </g>
  </symbol>
  <symbol id="arc-settings" viewBox="0 0 32 32">
    <g class="nc-icon-wrapper">
      <path transform="matrix(1 0 0 -1 0 30)"
            d="M30.015 17.03l-2.566.569c-.2.64-.462 1.252-.763 1.841l1.389 2.314c.518.828.78 2.047 0 2.828l-1.415 1.414c-.78.781-2.099.641-2.895.089l-2.25-1.434c-.585.303-1.195.562-1.83.767l-.576 2.598C18.937 28.968 18.104 30 17 30h-2c-1.105 0-1.782-1.047-2-2l-.642-2.567a11.97 11.97 0 0 1-1.948-.819l-2.307 1.47c-.796.552-2.114.693-2.895-.088l-1.414-1.414c-.781-.782-.519-2 0-2.829l1.461-2.435a11.897 11.897 0 0 1-.705-1.72l-2.566-.569C1.031 16.858 0 16.024 0 14.92v-2c0-1.104 1.047-1.781 2-2l2.598-.65c.18-.55.404-1.08.658-1.592L3.794 6.24c-.519-.828-.78-2.047 0-2.828l1.415-1.414c.78-.781 2.098-.64 2.894-.089l2.313 1.474a11.852 11.852 0 0 1 1.96-.824L13.015 0c.218-.953.895-2 2-2h2c1.104 0 1.937 1.031 2.109 1.984l.577 2.605c.628.203 1.23.459 1.807.758l2.256-1.437c.796-.552 2.115-.693 2.895.088l1.415 1.414c.78.782.518 2 0 2.828l-1.39 2.317c.28.549.522 1.12.716 1.714L30 10.92c.953.219 2 .896 2 2v2c0 1.104-1.031 1.938-1.985 2.11zm-.014-3.969a1.313 1.313 0 0 0-.448-.192l-3.708-.926-.344-1.05a10.191 10.191 0 0 0-.598-1.43l-.502-.986 1.96-3.266c.124-.2.183-.38.2-.485l-1.315-1.313c-.127.04-.272.092-.341.14l-3.292 2.099-1.024-.53a9.855 9.855 0 0 0-1.503-.63l-1.09-.353-.824-3.723c-.038-.199-.144-.36-.217-.417h-1.8a1.306 1.306 0 0 0-.191.448l-.92 3.681-1.066.338a9.862 9.862 0 0 0-1.63.685l-1.028.543-3.293-2.099a.752.752 0 0 0-.409-.142L5.307 4.729c.017.104.072.275.18.45l2.046 3.407-.486.98c-.227.462-.407.895-.547 1.325l-.344 1.052-3.671.918a1.414 1.414 0 0 0-.485.2v1.86a.01.01 0 0 1 .004-.002c.034 0 .198.117.335.142l3.773.836.346 1.102a9.9 9.9 0 0 0 .588 1.43l.487.98-2.024 3.373a1.42 1.42 0 0 0-.201.485l1.315 1.315c.127-.041.271-.093.34-.14l3.353-2.138 1.028.542a9.967 9.967 0 0 0 1.622.682l1.063.339.912 3.649c.053.23.138.398.2.485H17c-.014-.02.115-.195.141-.34l.84-3.794 1.09-.352a9.989 9.989 0 0 0 1.522-.639l1.023-.531 3.224 2.053a.75.75 0 0 0 .409.143l1.312-1.275a1.326 1.326 0 0 0-.181-.45l-1.98-3.297.505-.988c.273-.533.481-1.033.635-1.53l.346-1.104 3.696-.82c.224-.042.398-.17.435-.24zm-13.988 6.95c-3.32 0-6.023-2.697-6.023-6.01 0-3.314 2.702-6.01 6.023-6.01s6.023 2.696 6.023 6.01c0 3.313-2.702 6.01-6.023 6.01zM16 10c-2.206 0-4 1.794-4 4 0 2.205 1.794 4 4 4s4-1.795 4-4c0-2.206-1.795-4-4-4z"
            fill="currentColor" stroke="none" class="nc-icon-wrapper"/>
    </g>
  </symbol>
  <symbol id="arc-star" viewBox="0 0 32 32">
    <g class="nc-icon-wrapper">
      <path transform="matrix(1 0 0 -1 0 30)"
            d="M16 27.578l4.296-8.909 9.769-1.451-7.076-7.058.239-1.416L24.643.302 15.999 4.95 7.355.3l1.416 8.444.237 1.416-7.073 7.059 9.768 1.451.642 1.33zm0 1.936a2.32 2.32 0 0 1-2.094-1.296l-3.622-7.52L1.95 19.46a2.302 2.302 0 0 1-1.843-1.512 2.206 2.206 0 0 1 .537-2.286l6.107-6.1-1.417-8.458a2.23 2.23 0 0 1 .95-2.206 2.365 2.365 0 0 1 2.45-.13l7.265 3.912 7.266-3.912a2.37 2.37 0 0 1 2.451.13 2.23 2.23 0 0 1 .948 2.206l-1.417 8.458 6.11 6.1c.604.601.811 1.484.535 2.286a2.3 2.3 0 0 1-1.843 1.512l-8.333 1.24-3.624 7.52A2.313 2.313 0 0 1 16 29.514z"
            fill="currentColor" stroke="none" class="nc-icon-wrapper"/>
    </g>
  </symbol>
  <symbol id="arc-volume-1" viewBox="0 0 32 32">
    <g class="nc-icon-wrapper">
      <path transform="matrix(1 0 0 -1 0 30)"
            d="M20.462 27.94a1 1 0 0 1-1.029-.053L9.399 20.01l-3.332-.003c-1.703 0-3.09-1.208-3.09-2.7l.053-6.598c0-1.485 1.386-2.694 3.09-2.694l3.331-.002L19.432.113a1 1 0 0 1 1.56.83v26.114c0 .37-.204.71-.53.884zm-1.47-25.116L10.316 9.84a.999.999 0 0 1-.56.171l-3.636.002c-.642 0-1.09.366-1.09.702l-.054 6.599c0 .327.448.692 1.09.692l3.638.003a1 1 0 0 1 .558.17l8.728 7V2.824zm5.69 16.312a1 1 0 0 1-.33-1.973c1.573-.262 2.671-1.634 2.671-3.336 0-1.62-1.136-3.021-2.703-3.334a.999.999 0 0 1 .195-1.98c.064 0 .13.006.196.02 2.499.496 4.313 2.724 4.313 5.294-.001 2.657-1.827 4.89-4.342 5.31z"
            fill="currentColor" stroke="none" class="nc-icon-wrapper"/>
    </g>
  </symbol>
  <symbol id="arc-volume-2" viewBox="0 0 32 32">
    <g class="nc-icon-wrapper">
      <path transform="matrix(1 0 0 -1 0 30)"
            d="M17.953 27.94a1 1 0 0 1-1.028-.053L6.89 20.01l-3.332-.003c-1.704 0-3.09-1.208-3.09-2.7l.053-6.598c0-1.485 1.386-2.694 3.09-2.694l3.33-.002L16.925.113a1 1 0 0 1 1.56.83v26.114a1 1 0 0 1-.531.884zm-1.47-25.116L7.81 9.84a.999.999 0 0 1-.56.171l-3.636.002c-.642 0-1.09.366-1.09.702l-.054 6.599c0 .327.448.692 1.09.692l3.638.003a1 1 0 0 1 .558.17l8.729 7V2.824zm10.032 11.004c0 2.656-1.826 4.888-4.341 5.308a1 1 0 0 1-.33-1.973c1.572-.262 2.67-1.634 2.67-3.336 0-1.62-1.136-3.021-2.702-3.334a.999.999 0 0 1 .194-1.98c.065 0 .131.006.197.02 2.498.497 4.312 2.725 4.312 5.295zm-1.327 9.175a1 1 0 0 1-.7-1.874c3.017-1.126 5.043-4.06 5.043-7.301 0-3.243-2.026-6.183-5.04-7.313a1 1 0 0 1 .7-1.873c3.793 1.422 6.34 5.114 6.34 9.186s-2.55 7.759-6.343 9.175z"
            fill="currentColor" stroke="none" class="nc-icon-wrapper"/>
    </g>
  </symbol>
  <symbol id="arc-volume-off" viewBox="0 0 32 32">
    <g class="nc-icon-wrapper">
      <path transform="matrix(1 0 0 -1 0 30)"
            d="M17.985 27.94a1 1 0 0 1-1.028-.053L6.923 20.01l-3.332-.003c-1.704 0-3.09-1.208-3.09-2.7l.053-6.598c0-1.485 1.386-2.694 3.09-2.694l3.33-.002L16.957.113a1 1 0 0 1 1.56.83v26.114c0 .37-.204.71-.53.884zm-1.47-25.116L7.842 9.84a.999.999 0 0 1-.56.171l-3.636.002c-.642 0-1.09.366-1.09.702L2.5 17.314c0 .327.448.692 1.09.692l3.638.003a1 1 0 0 1 .557.17l8.73 7V2.824zm11.423 11.16l3.268 3.307a1 1 0 1 1-1.414 1.414l-3.26-3.299-3.26 3.3a1 1 0 1 1-1.415-1.415l3.269-3.307-3.238-3.276a1 1 0 0 1 1.415-1.414l3.229 3.267 3.228-3.267a1 1 0 1 1 1.414 1.414z"
            fill="currentColor" stroke="none" class="nc-icon-wrapper"/>
    </g>
  </symbol>
  <symbol id="arc-menu" viewBox="0 0 32 32">
    <g class="nc-icon-wrapper">
      <path transform="matrix(1 0 0 -1 0 30)"
            d="M.844 23.95c-.257.256-.382.581-.382.975s.125.719.382.975.581.381.975.381H30.33c.394 0 .719-.125.975-.381s.382-.581.382-.975-.125-.719-.382-.975-.581-.381-.975-.381H1.82c-.394 0-.719.125-.975.381zm30.462-8.912c.257-.257.382-.582.382-.976s-.125-.718-.382-.975-.581-.38-.975-.38H1.82c-.394 0-.719.124-.975.38s-.382.582-.382.975.125.72.382.976.581.38.975.38H30.33c.394 0 .719-.124.975-.38zm0-10.857c.257-.256.382-.581.382-.975s-.125-.719-.382-.975-.581-.381-.975-.381H1.82c-.394 0-.719.125-.975.381-.257.256-.382.582-.382.975s.125.719.382.975.581.382.975.382H30.33c.394 0 .719-.132.975-.382z"
            fill="currentColor" stroke="none" class="nc-icon-wrapper"/>
    </g>
  </symbol>
  <symbol id="arc-options-vertical" viewBox="0 0 32 32">
    <g class="nc-icon-wrapper">
      <path transform="matrix(1 0 0 -1 0 30)"
            d="M12.15 1.987v.85c.019.07.05.132.063.2.274 1.788 1.762 3.2 3.506 3.32 1.95.137 3.6-.976 4.137-2.788.069-.238.119-.488.181-.732v-.85c-.018-.056-.05-.106-.056-.168-.269-1.65-1.456-2.907-3.081-3.263-.125-.025-.25-.062-.375-.094h-.85c-.056.02-.113.05-.169.057-1.625.262-2.862 1.419-3.237 3.025-.038.156-.082.3-.119.443zm7.888 24.025v-.85c-.02-.068-.05-.13-.057-.2-.281-1.8-1.775-3.206-3.537-3.318-1.944-.125-3.588 1-4.119 2.818-.069.232-.119.47-.175.7v.85c.019.057.05.107.062.163.3 1.625 1.244 2.687 2.82 3.194.205.068.424.106.637.162h.85c.056-.019.112-.05.168-.056 1.632-.269 2.863-1.419 3.238-3.025l.113-.438zm0-11.587v-.85c-.02-.069-.05-.131-.063-.2-.281-1.794-1.831-3.238-3.581-3.313-1.969-.087-3.638 1.1-4.107 2.932-.05.193-.093.387-.137.58v.85c.019.07.05.132.062.2.275 1.795 1.832 3.238 3.582 3.32 1.968.093 3.637-1.1 4.106-2.932.05-.2.094-.393.137-.587z"
            fill="currentColor" stroke="none" class="nc-icon-wrapper"/>
    </g>
  </symbol>
  <symbol id="arc-options" viewBox="0 0 32 32">
    <g class="nc-icon-wrapper">
      <path transform="matrix(1 0 0 -1 0 30)"
            d="M28.106 10.056h-.85c-.068.019-.131.05-.2.063-1.787.275-3.2 1.762-3.318 3.506-.138 1.95.975 3.6 2.787 4.137.238.07.488.12.731.182h.85c.057-.019.106-.05.169-.057 1.65-.268 2.906-1.456 3.262-3.08.025-.126.063-.25.094-.376v-.85c-.018-.056-.05-.112-.056-.169-.263-1.625-1.419-2.862-3.025-3.237-.156-.038-.3-.081-.444-.119zM4.081 17.944h.85c.07-.019.132-.05.2-.057 1.8-.28 3.207-1.775 3.32-3.537.124-1.944-1-3.588-2.82-4.119-.23-.069-.468-.119-.7-.175h-.85c-.056.019-.106.05-.162.063-1.625.3-2.688 1.243-3.194 2.818-.069.207-.106.425-.162.638v.85c.018.056.05.112.056.169.269 1.631 1.419 2.862 3.025 3.237l.437.113zm11.588 0h.85c.069-.019.131-.05.2-.063 1.794-.281 3.237-1.831 3.312-3.581.088-1.969-1.1-3.638-2.93-4.106-.195-.05-.388-.094-.582-.138h-.85c-.069.019-.131.05-.2.063-1.794.275-3.238 1.83-3.319 3.581-.094 1.969 1.1 3.637 2.931 4.106.2.05.394.094.588.138z"
            fill="currentColor" stroke="none" class="nc-icon-wrapper"/>
    </g>
  </symbol>
  <symbol id="arc-arrow-down" viewBox="0 0 32 32">
    <g class="nc-icon-wrapper">
      <path transform="matrix(1 0 0 -1 0 30)"
            d="M.256 21.394a1.064 1.064 0 0 0 1.812.75l14.12-14.119L30.1 21.938c.413.412 1.087.412 1.5 0s.413-1.088 0-1.5L16.938 5.768a1.064 1.064 0 0 0-1.5 0L.568 20.639a1.054 1.054 0 0 0-.312.756z"
            fill="currentColor" stroke="none" class="nc-icon-wrapper"/>
    </g>
  </symbol>
  <symbol id="arc-arrow-left" viewBox="0 0 32 32">
    <g class="nc-icon-wrapper">
      <path transform="matrix(1 0 0 -1 0 30)"
            d="M23.505 30a1.074 1.074 0 0 0 .757-1.83L10.004 13.905l14.05-14.05a1.074 1.074 0 0 0 0-1.514 1.074 1.074 0 0 0-1.515 0L7.732 13.148a1.074 1.074 0 0 0 0 1.515l15.015 15.021c.208.209.486.316.758.316z"
            fill="currentColor" stroke="none" class="nc-icon-wrapper"/>
    </g>
  </symbol>
  <symbol id="arc-arrow-right" viewBox="0 0 32 32">
    <g class="nc-icon-wrapper">
      <path transform="matrix(1 0 0 -1 0 30)"
            d="M8.49-1.975a1.074 1.074 0 0 0-.757 1.83L21.989 14.12 7.94 28.17a1.074 1.074 0 0 0 0 1.514 1.074 1.074 0 0 0 1.515 0l14.807-14.807a1.074 1.074 0 0 0 0-1.514L9.247-1.66a1.077 1.077 0 0 0-.758-.316z"
            fill="currentColor" stroke="none" class="nc-icon-wrapper"/>
    </g>
  </symbol>
  <symbol id="arc-arrow-up" viewBox="0 0 32 32">
    <g class="nc-icon-wrapper">
      <path transform="matrix(1 0 0 -1 0 30)"
            d="M.256 6.519a1.064 1.064 0 0 1 1.812-.75l14.12 14.118L30.1 5.975c.413-.413 1.087-.413 1.5 0s.413 1.087 0 1.5L16.938 22.144a1.064 1.064 0 0 1-1.5 0L.568 7.275a1.054 1.054 0 0 1-.312-.756z"
            fill="currentColor" stroke="none" class="nc-icon-wrapper"/>
    </g>
  </symbol>
  <symbol id="arc-brightness_high" viewBox="0 0 24 24">
    <g class="nc-icon-wrapper">
      <path
        d="M20 8.69V4h-4.69L12 .69 8.69 4H4v4.69L.69 12 4 15.31V20h4.69L12 23.31 15.31 20H20v-4.69L23.31 12 20 8.69zM12 18c-3.31 0-6-2.69-6-6s2.69-6 6-6 6 2.69 6 6-2.69 6-6 6zm0-10c-2.21 0-4 1.79-4 4s1.79 4 4 4 4-1.79 4-4-1.79-4-4-4z"
        fill="currentColor" class="nc-icon-wrapper" stroke="none"/>
    </g>
  </symbol>
</svg>
