<svg width="2873" height="1678" viewBox="0 0 2873 1678" fill="none" xmlns="http://www.w3.org/2000/svg">
  <rect width="2873" height="1678" fill="#E61E28"/>
  <path d="M1308.15 1031.6C1261.78 1031.6 1224.19 994.003 1224.19 947.63C1224.19 901.256 1261.78 863.663 1308.15 863.663C1354.53 863.663 1392.12 901.256 1392.12 947.63C1392.12 994.003 1354.53 1031.6 1308.15 1031.6Z" stroke="white" stroke-width="14"/>
  <path d="M1391.09 1124.35C1298.91 1124.35 1224.19 1049.62 1224.19 957.44C1224.19 865.26 1298.91 790.534 1391.09 790.534C1483.27 790.534 1558 865.26 1558 957.44C1558 1049.62 1483.27 1124.35 1391.09 1124.35Z" stroke="white" stroke-width="14"/>
  <circle cx="1475.82" cy="947.63" r="251.63" transform="rotate(90 1475.82 947.63)" stroke="white" stroke-width="14"/>
  <rect x="1194" y="938.713" width="556.501" height="267.549" fill="#E61E28"/>
</svg>
