<svg width="289" height="91" viewBox="0 0 289 91" fill="none" xmlns="http://www.w3.org/2000/svg">
<path d="M186.876 83.3806C170.606 83.3806 163.555 76.0294 160.803 71.6497C157.654 66.5793 157.247 59.7153 157.247 54.297V18.8579C157.247 18.5153 157.252 18.1726 157.258 17.8193C157.317 14.1249 157.376 10.634 151.636 10.452H149.81V7.49649H179.231L179.252 10.4734L178.728 10.468C176.533 10.4466 174.862 11.0302 173.674 12.2027C172.266 13.6002 171.548 15.8383 171.548 18.8579V57.8413C171.548 71.0393 177.287 77.732 188.606 77.732C195.01 77.732 200.396 75.842 203.764 72.41C209.209 66.7828 209.643 59.4905 209.643 50.5383V18.7509C209.643 14.05 209.177 10.4573 203.287 10.4573H201.756V7.49649H223.457V10.4573H222.54C218.194 10.4573 215.677 11.8119 215.677 18.7509V51.0791C215.682 72.8169 206.259 83.3806 186.876 83.3806Z" fill="#E61E28"/>
<path d="M259.727 81.8065H230.278V78.8617L230.776 78.8456C237.679 78.6475 238.031 76.4417 238.031 70.1024V18.8151C238.031 12.2188 237.775 10.6554 231.066 10.4573L230.568 10.4413V7.49649H260.61C278.359 7.49649 287.643 17.8996 287.643 28.1741C287.643 39.9319 277.16 49.1409 263.78 49.1409L257.152 49.0446V43.8403C257.152 43.8403 259.662 43.8136 260.578 43.8136C268.812 43.8136 273.048 37.5867 273.048 28.3187C273.048 18.6652 266.858 12.176 257.65 12.176L251.728 12.1599V71.2963C251.728 77.5071 252.852 78.6314 259.234 78.8403L259.732 78.8563V81.8065H259.727Z" fill="#E61E28"/>
<path d="M151.716 81.8065H130.498L107.797 47.2831V43.0694L108.257 43.0212C116.219 42.1806 123.693 37.5974 123.693 27.2479C123.693 18.5635 117.445 12.5026 108.498 12.5026H102.373V71.2963C102.373 77.6999 105.312 78.337 109.467 78.5298L109.954 78.5512V81.8012H81.1653V78.8135L81.6525 78.7868C87.8954 78.4388 88.7788 76.8753 88.7788 71.291V18.0012C88.5486 11.405 88.1417 10.559 81.6739 10.4573L81.1706 10.452V7.49649H112.182C124.009 7.49649 137.822 12.6953 137.822 27.355C137.822 36.0929 132.527 42.3627 122.076 45.9981L133.856 63.3883C135.14 65.3586 139.862 71.0875 141.978 73.4219C146.009 77.7587 148.911 78.3584 150.833 78.7546L151.716 78.9421V81.8065Z" fill="#E61E28"/>
<path d="M76.0523 81.8065H47.9592V78.9046L48.4571 78.8885C51.8891 78.7707 54.0147 78.0212 54.0147 74.6695C54.0147 73.1703 52.8421 70.2363 52.2103 68.6567L47.6433 57.7343H22.27L17.6066 68.3569C16.0593 71.8639 15.6095 73.1328 15.6095 74.7765C15.6095 77.1912 15.6095 78.7867 21.2581 78.8885L21.7614 78.8992V81.8119H1.50134V78.9046L2.00463 78.8939C6.02023 78.8028 8.10835 76.7629 10.946 70.1612L38.4288 7.49649H41.2505L41.3843 7.80703L68.9474 72.7099C70.9338 77.5447 71.4049 78.6904 75.5651 78.8617L76.0577 78.8832V81.8065H76.0523ZM24.3528 52.7067H45.5873L35.2056 27.521L24.3528 52.7067Z" fill="#E61E28"/>
</svg>
